<svg width="576" height="384" viewBox="0 0 576 384" fill="none" xmlns="http://www.w3.org/2000/svg">
<path d="M163.976 246.727C170.108 251.722 175.157 259.023 183.092 260.944C183.092 260.944 183.092 261.328 183.092 261.713C183.092 269.398 209.783 264.787 210.865 265.939C210.865 265.939 212.668 274.777 212.307 275.161C211.225 276.698 200.044 277.083 197.88 276.698C187.781 275.93 175.878 269.013 169.386 260.56C165.419 255.565 162.533 248.264 158.566 243.269C159.648 240.963 162.533 246.727 162.894 247.111C162.894 247.111 163.615 245.958 163.976 246.343V246.727Z" fill="#2B47A8"/>
<path d="M235.751 175.257C231.784 172.951 231.063 175.257 230.702 175.257C223.128 170.646 218.439 164.498 208.7 162.576C198.962 160.655 189.945 164.113 180.207 163.345C180.207 162.576 180.928 162.192 180.928 161.808C200.044 154.507 221.685 158.734 236.112 175.257H235.751Z" fill="#B4F3FF" fill-opacity="0.8"/>
<path d="M235.751 175.256C238.276 176.793 243.686 184.478 244.768 187.552C264.967 231.357 223.849 279.772 182.731 262.097C182.731 262.097 182.731 261.713 182.731 261.328C182.731 260.56 185.617 260.175 183.813 257.87C183.453 257.486 174.796 253.643 172.993 252.106C166.861 246.727 156.041 235.968 153.516 227.899C152.073 222.519 153.155 218.292 150.631 214.066C150.631 213.681 151.352 211.376 149.549 211.376C130.793 221.366 124.662 237.889 116.366 256.717C113.12 264.018 110.956 271.703 108.07 278.619C99.4138 299.369 91.4788 320.118 81.3798 340.099C83.5438 335.104 84.2652 328.956 87.5113 324.345C87.5113 323.192 82.1011 323.192 81.3798 323.192C91.1182 295.142 107.349 265.939 115.644 237.505C116.727 234.047 119.612 223.288 119.612 220.598C119.612 219.829 118.169 220.598 118.169 220.214C118.169 219.829 119.612 219.061 117.809 217.524C114.562 217.908 111.316 217.524 108.431 216.755C122.858 214.834 139.089 208.686 150.991 199.08C158.205 193.316 177.321 171.414 180.567 162.96C190.306 163.729 198.962 160.271 209.061 162.192C219.16 164.113 223.488 170.261 231.062 174.872C231.423 174.872 232.145 172.567 236.112 174.872L235.751 175.256Z" fill="#6D9ACC"/>
<path d="M183.092 260.944C175.157 259.023 170.107 251.722 163.976 246.727C156.401 237.889 149.909 226.746 150.991 213.681C153.516 218.292 152.434 222.135 153.877 227.514C156.401 235.584 167.222 246.343 173.353 251.722C175.157 253.259 183.813 257.102 184.174 257.486C185.977 259.791 183.092 259.791 183.092 260.944Z" fill="#92C8FF"/>
<path d="M237.194 219.829C236.473 224.056 234.669 227.899 232.505 231.741C227.095 231.741 238.637 221.366 231.784 219.829C231.784 218.292 231.784 216.371 231.784 214.834C231.784 210.992 231.784 207.533 231.063 203.691C222.767 157.581 157.844 179.099 172.272 218.677C172.272 220.982 172.272 221.751 172.993 223.672C172.993 224.44 173.354 224.825 173.714 225.209L169.025 225.977C144.86 162.961 248.736 151.817 237.194 219.061V219.829Z" fill="#2B1F56"/>
<path d="M232.505 231.741C227.095 240.195 217.357 247.88 207.979 249.417C201.487 250.569 198.241 250.569 191.748 248.648C182.731 245.958 172.271 235.968 168.665 226.746L173.354 225.977C174.075 227.899 175.157 228.667 175.518 229.436C175.878 230.204 176.239 231.741 176.96 232.894C179.124 235.968 180.206 236.736 183.092 238.658C200.405 252.106 227.095 242.5 231.423 220.214C238.276 221.366 226.734 231.741 232.145 232.125L232.505 231.741Z" fill="#181034"/>
<path d="M208.339 254.412V249.417C217.717 247.88 227.455 240.195 232.866 231.741C235.03 228.283 236.833 224.44 237.555 219.829C244.047 219.829 235.751 236.352 233.587 239.81C227.816 248.648 218.078 253.643 208.339 254.412Z" fill="#3461F8"/>
<path d="M246.932 212.913C250.539 234.431 234.669 251.338 218.799 260.176C215.192 252.875 224.931 251.338 230.341 246.727C240.079 237.889 245.129 226.362 247.293 212.913H246.932Z" fill="#4B7FDA"/>
<path d="M208.339 249.417V254.412C204.733 254.412 198.601 255.564 194.994 253.643C193.912 252.875 191.748 250.569 192.469 248.648C198.962 250.569 201.847 250.569 208.7 249.417H208.339Z" fill="#6D9ACC"/>
<path d="M194.994 181.789L195.716 184.478C187.42 186.4 177.682 194.085 177.682 204.844C183.813 187.168 201.126 177.946 214.832 192.932L184.895 219.445C186.699 221.751 188.863 223.672 191.387 224.825C197.158 227.13 205.815 225.593 211.225 222.135C211.946 221.751 216.635 214.45 216.996 218.677C208.7 227.13 201.847 231.357 189.945 225.593C187.059 224.44 182.37 215.987 183.813 222.903C178.764 216.755 182.37 224.44 179.124 223.672C172.271 208.302 177.682 223.672 175.517 228.667C175.157 227.899 173.714 227.13 173.353 225.209C173.353 224.44 172.632 224.056 172.632 223.672C174.435 222.519 172.271 219.829 171.911 218.677C171.911 216.755 171.911 214.834 171.911 213.297C175.878 220.982 172.993 208.302 173.353 204.844C174.796 192.548 184.534 184.094 194.634 181.789H194.994Z" fill="#F158C9"/>
<path d="M231.784 214.834C231.784 214.834 231.784 218.677 231.784 219.829C227.816 242.5 200.765 252.106 183.453 238.273L185.617 234.047C207.257 248.264 232.144 228.283 226.013 201.001C232.144 204.075 227.095 210.992 231.423 214.45L231.784 214.834Z" fill="#2F2C34"/>
<path d="M231.062 203.691C231.784 207.533 232.144 210.992 231.784 214.834C227.455 211.376 232.505 204.459 226.373 201.385L224.931 200.233C226.013 205.996 226.373 210.992 224.931 216.755C223.849 213.297 222.045 214.066 219.521 215.987C221.324 209.839 220.963 202.538 218.078 196.774C214.471 187.168 204.372 182.942 196.076 184.863L195.355 182.173C198.24 181.405 210.143 180.636 212.668 181.405C213.389 181.405 220.242 190.626 221.685 191.395L220.963 186.4C227.095 191.011 227.095 198.696 231.423 204.075L231.062 203.691Z" fill="#F02FC5"/>
<path d="M231.062 203.691C226.734 198.312 226.734 190.242 220.603 186.016L221.324 191.011C221.324 191.011 212.668 181.02 212.307 181.02C210.143 180.252 198.24 181.02 194.994 181.789C184.535 184.479 175.157 192.932 173.714 204.844C173.353 208.302 175.878 220.982 172.271 213.297C172.271 215.218 172.271 217.14 172.271 218.677C157.844 178.715 222.767 157.581 231.062 203.691Z" fill="#E5C2E8"/>
<path d="M172.993 224.056C172.271 221.751 172.271 221.366 172.271 219.061C172.632 220.214 175.157 222.903 172.993 224.056Z" fill="#E5C2E8"/>
<path d="M224.931 216.371C220.242 236.736 191.748 242.116 180.206 224.825C177.682 225.209 180.206 228.283 180.567 229.051L177.682 232.51C177.682 232.51 176.599 229.82 176.239 229.051C178.403 223.672 172.993 208.686 179.846 224.056C183.092 224.825 179.485 217.14 184.534 223.288C183.092 215.987 187.781 224.44 190.666 225.977C202.929 231.741 209.421 227.899 217.717 219.061C218.799 217.908 219.881 215.987 219.881 215.603C222.406 213.681 224.209 212.913 225.291 216.371H224.931Z" fill="#6A2459"/>
<path d="M180.567 229.051C180.567 229.051 185.617 234.047 185.977 234.047L183.813 238.273C180.928 235.968 179.846 235.584 177.682 232.51L180.567 229.051Z" fill="#861498"/>
<path d="M218.078 196.006C220.963 201.77 221.324 209.071 219.521 215.219C219.521 215.219 218.439 217.524 217.357 218.677C216.996 214.45 212.668 221.367 211.586 222.135C206.175 225.593 197.519 227.13 191.748 224.825C189.223 223.672 187.059 221.367 185.256 219.445L215.192 192.932C215.192 192.932 218.078 196.006 218.078 196.39V196.006Z" fill="#CA3EB0"/>
<path d="M218.078 196.006C218.078 196.006 215.553 193.316 215.192 192.548C201.487 177.562 184.174 186.784 178.042 204.459C178.042 194.085 187.781 186.016 196.076 184.094C204.372 182.173 214.471 186.016 218.078 196.006Z" fill="#E5C2E8"/>
<path d="M226.374 201.385C232.505 228.283 207.618 248.648 185.977 234.431C185.977 234.431 180.928 229.82 180.567 229.436C179.846 228.667 177.682 225.593 180.206 225.209C191.748 242.5 220.242 237.121 224.931 216.755C226.374 210.992 226.013 205.996 224.931 200.233L226.374 201.385Z" fill="#0F0E1B"/>
<path d="M534.395 380.83C534.395 380.83 531.149 382.367 528.985 382.367C518.886 383.135 513.837 384.672 503.016 383.135C499.409 382.751 496.524 380.83 492.917 379.677C490.032 378.524 486.425 374.682 483.9 373.913C450.357 345.479 440.258 297.064 417.895 259.407C394.09 288.61 355.137 290.531 331.692 260.176H247.654C222.767 287.457 182.37 291.684 159.648 258.639C137.646 296.679 126.826 343.942 94.3642 373.145C91.4787 373.913 88.2326 377.372 86.0685 378.909C82.101 380.446 78.8549 382.367 74.5267 383.135C66.9524 384.288 59.0174 384.288 51.4431 383.135C48.197 382.751 47.8363 382.751 45.3115 380.446C47.8363 380.83 63.7063 382.751 64.7883 381.983C65.5097 381.598 64.7883 378.909 65.5097 378.524C66.9524 378.14 71.2806 378.524 73.084 377.756C78.4942 375.45 84.2651 370.839 88.5933 366.613C115.644 343.942 131.875 297.448 147.384 264.018C148.827 261.328 154.598 253.259 154.959 252.106C156.041 249.417 154.598 249.417 154.237 247.495C153.877 244.806 149.548 236.352 154.598 237.505C158.565 238.274 155.68 244.421 155.68 244.806C157.483 250.569 163.615 257.87 168.665 260.56C175.517 269.013 187.059 275.546 197.158 276.698C199.322 276.698 210.504 276.698 211.586 275.161C211.586 275.161 210.504 266.324 210.143 265.939C209.061 264.787 182.01 269.398 182.37 261.713C223.488 279.004 264.606 230.973 244.408 187.168C242.965 184.479 237.555 176.409 235.391 174.872C221.324 158.35 199.683 154.123 180.206 161.424C180.206 161.424 179.124 159.502 180.206 157.965C196.076 116.082 171.55 70.7409 135.843 54.2181L136.564 52.6812C138.728 53.4497 141.253 55.7551 143.778 54.2181C145.22 53.4497 163.254 30.3947 163.976 28.8577C165.058 26.9365 165.058 23.8625 163.976 21.9412C163.615 21.1727 161.09 20.4042 160.369 20.4042C154.598 19.2515 87.1506 19.2515 82.4617 20.4042C75.2481 22.3255 64.4276 53.0654 59.7388 60.3661C59.7388 62.6716 61.9029 59.5976 62.6242 59.2134C64.7883 58.0606 66.5917 56.9079 68.7558 55.7551C70.9199 54.6024 73.4447 53.4497 75.6088 52.2969C80.2976 50.3757 83.5438 49.2229 88.5933 48.0702V49.6072C81.3797 51.5284 75.2481 53.8339 68.7558 58.0606C45.6722 72.2779 31.9663 96.1013 31.245 125.688H29.8022C29.8022 123.767 29.8022 121.462 29.8022 119.541C27.9988 121.846 26.1954 129.147 25.1134 132.989C20.4245 152.97 16.8177 176.409 13.5716 196.775L9.60409 195.622L5.6366 213.682C10.3255 176.794 19.3425 113.008 37.7372 82.6526C41.7047 75.7361 49.279 69.2039 52.8859 63.4401C58.6568 53.4497 69.1165 21.557 77.7729 16.5617C78.8549 16.1775 84.2651 16.5617 84.9865 15.409C85.3472 14.6405 85.7078 3.88151 90.036 1.57601C92.5608 0.423265 139.449 -0.345234 142.695 0.807514C148.827 2.72876 147.745 15.7932 150.27 16.946C157.483 20.02 167.222 10.4137 169.386 26.168H404.911C407.436 10.0295 417.895 20.02 424.027 16.946C426.191 15.7932 425.109 2.72876 431.601 0.807514C434.126 0.0390156 479.572 0.0390156 482.097 0.807514C488.228 2.34451 487.867 15.7932 490.392 16.946C491.474 17.3302 494.72 16.5617 495.802 16.946C505.902 22.3255 513.837 52.2969 519.968 61.9031C523.214 66.8984 530.428 73.0464 534.395 78.8101C558.922 115.314 583.087 278.235 574.07 322.424C569.381 346.632 553.151 370.455 532.953 381.214L534.395 380.83Z" fill="#2B1F56"/>
<path d="M362.711 43.4592C362.35 47.3017 362.711 52.6812 362.711 56.9079C361.99 74.9676 360.908 105.323 362.711 122.23C362.711 125.304 364.154 123.767 364.154 126.073C343.234 127.226 319.429 123.383 298.149 125.304C290.935 127.61 299.952 142.98 305.002 128.763L368.843 129.531L369.564 130.3C369.564 130.3 368.482 131.452 368.121 133.373C371.728 133.373 371.728 135.295 372.089 135.295C366.318 136.447 366.679 140.674 365.596 145.285H212.307C210.143 143.748 210.504 137.216 206.897 135.295C208.339 133.758 209.421 132.989 211.586 132.221C210.864 129.531 206.897 130.3 206.536 130.3C205.815 129.531 207.257 129.147 206.897 128.763H275.426C280.115 140.674 290.214 129.915 281.918 126.073C268.934 120.309 224.931 129.531 210.143 125.304C210.143 122.999 210.143 120.693 210.143 118.388L214.832 115.314V42.3065L363.072 43.075L362.711 43.4592Z" fill="url(#paint0_linear_106_35)"/>
<path d="M369.564 104.939C367.4 104.939 367.4 103.786 367.4 101.865C365.957 88.8005 367.4 70.3566 367.4 56.9078C367.4 48.8386 368.482 41.1536 367.76 33.4686H209.061C209.061 33.4686 209.061 32.3159 209.061 31.9316H368.482C370.646 34.6214 369.925 96.4855 369.564 105.323V104.939Z" fill="#69B6FF"/>
<path d="M204.372 33.4687C204.372 33.4687 203.65 34.6214 203.65 35.0057C201.486 33.0844 158.565 31.5474 162.172 44.9962L163.254 43.4592C163.254 43.4592 165.779 44.2277 167.222 44.2277C162.893 68.4354 163.615 79.5786 189.223 73.8149C189.223 74.1991 189.944 74.9676 189.944 74.9676C185.977 78.0416 175.157 74.9676 170.468 75.3519C171.189 76.8888 171.91 78.0416 172.271 79.5786L146.302 56.9079C153.876 56.9079 157.122 43.8434 162.533 38.8482C172.992 28.4735 191.387 35.3899 204.732 33.4687H204.372Z" fill="#69B6FF"/>
<path d="M256.31 198.696C260.638 210.608 262.802 228.667 259.196 240.963C258.474 240.963 254.146 243.269 253.064 240.579C257.032 220.982 250.539 190.627 239.358 175.257C245.85 179.099 253.425 191.395 256.31 198.696Z" fill="#3B56AE"/>
<path d="M367.039 56.908C367.039 70.7409 365.596 89.1849 367.039 101.865C367.039 103.786 367.039 104.939 369.203 104.939C369.203 111.471 369.203 118.004 369.203 124.92C367.4 126.457 365.957 126.073 363.793 126.073C363.793 123.767 362.711 125.304 362.35 122.23C360.547 105.323 361.629 74.9677 362.35 56.908H367.039Z" fill="#4B7FDA"/>
<path d="M251.982 250.954H325.2C325.2 250.954 327.725 253.643 327.003 254.796C324.479 257.87 259.195 253.259 250.178 255.18C248.014 253.643 250.539 252.491 251.621 250.954H251.982Z" fill="#3461F8"/>
<path d="M187.42 158.35C187.42 158.35 183.092 159.887 182.01 158.734C192.83 139.522 188.502 114.545 180.567 94.9486L182.731 93.0274C193.191 111.087 197.158 139.137 187.42 158.35Z" fill="#4B7FDA"/>
<path d="M141.613 15.7933C140.892 9.64528 133.318 11.5665 128.268 11.5665C124.301 11.5665 96.8889 11.5665 95.4461 12.335C95.4461 12.335 94.3641 15.7933 94.3641 16.5618C92.9214 16.1775 91.8393 17.7145 91.4786 15.409C91.4786 15.0248 93.282 7.33978 95.0854 6.57128C97.2495 5.80279 140.892 5.41854 143.417 6.57128C145.22 7.33978 145.581 14.2563 145.22 16.1775C143.777 17.7145 142.335 15.7933 142.335 15.7933H141.613Z" fill="#9186F9"/>
<path d="M141.613 15.7932C133.318 17.3302 102.66 19.6357 94.364 16.5617C94.364 15.7932 95.0854 12.3349 95.4461 12.3349C96.8888 11.5664 124.301 11.5664 128.268 11.5664C133.318 11.5664 140.892 9.64519 141.613 15.7932Z" fill="#2B1F56"/>
<path d="M204.372 33.4686C191.387 35.3899 172.632 28.8577 162.172 38.8481C157.122 43.8434 153.516 56.9078 145.941 56.9078C145.22 55.3708 162.533 33.4686 164.697 32.3159C167.221 31.1632 200.765 30.7789 202.929 31.5474C203.29 31.5474 204.011 32.7001 204.011 33.0844L204.372 33.4686Z" fill="#63F6FF"/>
<path d="M203.651 35.0057C203.651 35.0057 204.372 36.5427 204.372 37.6954C191.748 40.3852 173.714 35.0057 163.254 43.4592L162.172 44.9962C158.926 31.5474 201.847 33.0844 203.651 35.0057Z" fill="#92C8FF"/>
<path d="M209.061 31.9316C209.061 31.9316 209.061 33.0844 209.061 33.4686C209.061 35.3899 209.782 35.0056 209.782 35.0056C209.421 62.6716 207.618 90.7218 209.782 118.388C209.782 120.693 209.782 122.999 209.782 125.304C208.7 125.304 208.339 125.304 207.618 124.151L209.061 31.9316Z" fill="white"/>
<path d="M262.442 240.963C262.442 240.963 260.277 240.963 259.556 240.963C262.802 229.052 260.999 210.608 256.671 198.696C265.327 207.918 267.852 229.436 262.802 240.963H262.442Z" fill="#3461F8"/>
<path d="M281.558 126.073C281.558 126.073 283.722 129.531 283.722 129.915C283.722 132.989 275.065 132.989 277.59 127.994C280.836 134.142 284.082 127.225 278.312 127.225C279.394 126.457 280.476 125.688 281.197 126.457L281.558 126.073Z" fill="#6E0C71"/>
<path d="M301.395 128.763C303.92 132.989 293.821 135.295 297.428 128.763C298.149 131.068 299.952 130.684 301.395 128.763Z" fill="#B0009D"/>
<path d="M301.395 128.763C301.395 128.763 298.149 131.068 297.428 128.763C299.231 126.073 299.952 126.457 301.395 128.763Z" fill="#E5C2E8"/>
<path d="M277.59 127.994L278.311 127.225C284.082 127.225 280.836 134.142 277.59 127.994Z" fill="#EED5EB"/>
<path d="M362.711 43.4592L214.832 42.6907L214.832 125.701H211.193H207.554C203.666 100.504 209.421 63.056 209.782 35.39H363.793C367.76 40.3853 362.711 43.4592 362.711 43.8435V43.4592Z" fill="#92C8FF"/>
<path d="M367.039 56.9078H362.35C362.35 52.6811 361.99 47.3016 362.35 43.4591C362.35 43.0749 367.4 40.0009 363.432 35.0056H209.421C209.421 35.0056 209.061 35.0056 208.7 33.4686H367.4C368.121 41.5379 367.039 49.2228 367.039 56.9078Z" fill="#6D9ACC"/>
<path d="M203.651 134.526L202.208 135.295C198.601 137.984 199.322 145.669 202.208 146.438C202.569 146.438 209.061 145.285 209.782 144.517C210.504 142.211 206.536 136.832 205.093 135.679C205.454 135.679 206.536 135.679 206.536 135.679C209.782 137.984 209.782 144.132 211.946 145.669C215.192 147.975 220.603 144.517 220.963 148.359C214.11 148.359 207.257 148.359 200.404 147.591C195.716 142.211 197.158 132.605 203.29 134.91L203.651 134.526Z" fill="#221D2A"/>
<path d="M221.324 147.975C253.064 148.359 285.165 147.975 316.905 147.975C317.626 149.896 314.74 149.896 314.74 150.665H263.163C262.442 161.424 262.802 172.567 262.802 183.71V185.247C262.802 185.247 261.36 185.247 261.36 184.863V149.896C244.047 148.744 224.931 151.433 208.339 149.896C206.897 149.896 201.126 149.128 200.765 149.128C199.683 149.128 201.486 147.975 201.126 147.591C207.979 148.359 214.832 148.359 221.685 148.359L221.324 147.975Z" fill="#E6E3FE"/>
<path d="M371.728 135.295C371.728 135.295 375.335 134.526 376.417 137.216C377.499 140.29 375.695 145.669 372.81 146.822C366.678 149.512 326.643 147.591 316.544 147.591C284.804 147.591 252.703 147.975 220.963 147.591C220.242 144.132 214.831 147.591 211.946 144.901H365.236C366.318 140.29 365.957 135.679 371.728 134.911V135.295Z" fill="#2B1F56"/>
<path d="M370.646 137.216C377.499 135.295 375.695 146.822 367.76 144.133C365.957 142.596 369.925 137.6 370.646 137.216Z" fill="#BFBFFF"/>
<path d="M202.208 135.295V146.438C199.322 145.67 198.601 138.369 202.208 135.295Z" fill="#FD73E8"/>
<path d="M189.223 73.8149C163.254 79.9629 162.533 68.4354 167.222 44.2277C181.288 43.8435 194.634 38.0797 193.191 59.9819C193.191 59.9819 191.027 60.7504 191.027 61.5189C191.027 64.9772 191.748 70.3567 191.027 73.4307C191.027 74.1991 189.584 73.4307 189.584 73.8149H189.223Z" fill="#2B1F56"/>
<path d="M189.223 60.3664C183.092 60.7507 176.96 60.3664 170.829 61.1349C166.14 44.228 178.042 53.45 185.977 47.6862C188.502 49.2232 189.584 57.2924 188.863 60.3664H189.223Z" fill="#70BFF9"/>
<path d="M189.223 60.3666C188.141 66.8988 180.927 62.2878 176.238 64.2091C180.927 66.1303 189.944 61.1351 188.501 69.5886C185.616 69.9728 188.501 68.0516 187.78 66.8988C184.895 63.4406 173.714 66.1303 168.664 65.3618C168.664 64.2091 167.943 62.2878 167.943 61.9036C169.025 61.9036 169.746 61.1351 170.828 61.1351C176.96 59.9823 183.091 60.7508 189.223 60.3666Z" fill="#BE008C"/>
<path d="M185.977 47.6861C177.682 53.4498 166.14 44.2278 170.829 61.1348C169.386 61.1348 169.025 61.9033 167.943 61.9033C167.943 58.445 167.222 48.0703 170.468 46.9176C171.911 46.1491 184.535 46.9176 185.977 47.6861Z" fill="#FFC0FF"/>
<path d="M187.42 67.2828C187.42 67.2828 185.256 70.3568 188.141 69.9726L187.059 71.5096H169.386C169.386 71.5096 168.665 69.2041 168.304 68.0513L187.42 67.2828Z" fill="#FF5CC6"/>
<path d="M187.42 67.2829L168.304 68.0514C168.304 68.0514 168.304 66.1302 168.304 65.3617C173.353 66.1302 184.534 63.4405 187.42 66.8987V67.2829Z" fill="#FF9EFF"/>
<path d="M314.38 150.665C312.937 155.276 315.822 185.631 314.019 186.784H262.802C262.802 186.784 262.802 185.247 262.442 185.247V183.71C262.442 183.71 263.524 184.479 264.606 184.479C279.394 186.016 295.985 183.326 310.773 184.479C313.658 182.942 310.773 175.257 311.133 173.335C311.133 173.335 311.855 173.335 311.855 170.646C311.855 170.646 311.855 170.261 311.855 169.877C311.855 167.572 311.133 165.65 311.133 164.882C311.133 162.576 311.855 159.118 311.855 156.428C311.855 154.891 312.576 152.202 312.576 150.665H314.019H314.38Z" fill="#2F2C34"/>
<path d="M312.937 150.665C312.937 150.665 312.216 154.891 312.216 156.428H263.884L264.245 164.882H311.134C311.134 164.882 311.855 167.572 311.855 169.877C306.084 169.109 265.327 167.572 263.524 170.646C263.524 171.03 263.524 172.567 263.524 173.335C263.163 176.409 263.524 181.405 264.245 184.479C263.163 184.479 262.802 184.479 262.081 183.71C262.081 172.951 262.081 161.808 262.442 150.665H312.576H312.937Z" fill="#B0009D"/>
<path d="M311.494 173.335C311.494 173.335 314.019 182.942 311.134 184.479C295.985 183.326 279.754 186.016 264.966 184.479C263.884 181.405 263.884 176.409 264.245 173.335H311.494Z" fill="#FC1DCF" fill-opacity="0.7"/>
<path d="M312.216 156.428C312.216 159.118 311.494 162.576 311.494 164.882H264.606V156.044L312.216 156.428Z" fill="#FC1DCF" fill-opacity="0.7"/>
<path d="M312.216 169.877C312.216 169.877 312.216 170.261 312.216 170.646H263.884C265.327 167.572 306.445 169.109 312.216 169.877Z" fill="#FC1DCF" fill-opacity="0.7"/>
<path d="M312.216 171.03C312.216 173.335 311.494 173.335 311.494 173.72H264.245C264.245 173.72 264.245 171.414 264.245 171.03H312.576H312.216Z" fill="#FF5CC6"/>
<path d="M203.65 134.526C203.65 134.526 204.372 134.526 205.093 135.295C206.536 136.448 210.503 141.827 209.782 144.133C209.061 145.285 202.568 146.438 202.208 146.054V134.911C202.208 134.911 202.208 133.374 203.65 134.142V134.526Z" fill="#CB1487"/>
<path d="M203.29 137.985C203.29 137.985 207.257 141.059 206.175 142.211C204.011 145.67 200.404 138.369 203.29 137.985Z" fill="white"/>
<path d="M204.372 37.6954C208.339 62.2873 200.404 100.328 204.372 124.92C204.372 125.304 206.175 127.994 206.536 128.762C206.536 129.147 205.454 129.531 206.175 130.299C206.175 130.299 210.143 129.915 211.225 132.221C209.421 132.605 207.979 133.758 206.536 135.295C206.536 135.295 205.454 135.295 205.093 135.295C204.372 134.526 204.732 134.91 203.65 134.526C197.519 132.221 195.715 141.827 200.765 147.206C200.765 147.591 199.322 148.743 200.404 148.743C201.126 148.743 206.536 149.512 207.979 149.512C224.57 151.049 243.686 148.359 260.638 149.512V184.479C260.638 184.479 262.441 184.479 262.441 184.863C262.441 185.247 262.441 186.4 262.802 186.4H314.019C314.019 186.4 312.937 154.507 314.38 150.28C314.38 149.896 317.265 149.512 316.544 147.591C326.282 147.591 366.318 149.512 372.81 146.822C375.335 145.669 377.138 139.906 376.417 137.216C375.335 134.526 372.449 135.295 371.728 135.295C371.728 135.295 371.728 132.989 367.76 133.373C368.121 131.836 368.482 131.836 369.203 130.299C369.924 129.531 372.449 129.147 373.171 126.457V38.0796C383.991 40.7694 403.468 33.8529 412.124 41.5379C412.846 41.9221 415.01 46.9174 415.01 46.9174H410.321C407.435 41.5379 387.598 41.9221 385.073 47.3016C383.991 50.3756 383.991 68.0511 385.073 70.7408C386.876 75.3518 393.369 74.5833 397.336 74.5833C400.222 78.81 404.189 72.2778 405.632 78.0415C387.959 99.1752 378.941 131.068 389.401 158.734C350.087 146.054 322.675 179.483 323.036 221.366C323.036 225.209 323.757 237.889 324.479 240.579C303.559 240.579 282.64 240.579 261.72 240.579C266.77 229.051 264.245 207.918 255.588 198.311C253.064 191.011 245.129 178.715 238.636 174.872C224.931 156.044 206.896 153.354 186.698 157.965C196.437 138.753 192.469 110.703 182.009 92.643L179.845 94.5642C177.681 89.1848 173.714 84.5738 171.55 79.5785C170.828 78.0415 170.107 76.8888 169.746 75.3518C174.435 75.3518 185.256 78.0415 189.223 74.9675C189.223 74.9675 188.141 74.199 188.502 73.8148C188.502 73.8148 189.944 73.8148 189.944 73.4305C190.666 70.3565 189.944 64.9771 189.944 61.5188C189.944 60.7503 192.109 59.9818 192.109 59.9818C193.551 38.0796 180.206 43.8434 166.139 44.2276C164.697 44.2276 163.975 43.0749 162.172 43.4591C172.632 34.6214 190.666 40.3851 203.29 37.6954H204.372Z" fill="#6D9ACC"/>
<path d="M190.666 84.958C193.912 88.8005 196.797 89.1847 192.108 94.18C182.731 97.6382 181.288 84.1895 190.666 84.958Z" fill="#6E0C71"/>
<path d="M192.108 94.1801C196.797 88.8006 193.912 88.8006 190.666 84.9581C196.797 84.9581 197.879 92.2589 192.108 94.1801Z" fill="#170F40"/>
<path d="M191.387 88.4164L190.666 89.1849C184.534 89.1849 188.141 93.0274 186.338 92.6432C182.37 88.0322 189.223 84.9582 191.387 88.4164Z" fill="#FF96FF"/>
<path d="M190.666 89.1848L191.387 88.4163L192.469 89.9533L190.666 89.1848Z" fill="#FFC0FF"/>
<path d="M283.361 199.464C287.329 198.696 297.428 199.464 299.952 203.307C301.756 205.997 302.838 222.904 302.477 226.362L272.18 225.209C276.869 217.14 272.541 201.77 283.361 199.464Z" fill="#3D298E"/>
<path d="M282.279 208.686H294.542C296.706 210.992 297.067 217.524 296.345 221.366L279.033 220.214L277.59 223.288C275.065 224.825 277.59 217.908 277.59 216.371C280.475 217.908 279.393 211.76 281.558 208.686H282.279Z" fill="#78C6FF"/>
<path d="M297.427 208.686C297.427 208.686 300.313 223.288 299.231 223.672L277.59 222.903L279.033 219.829L296.345 220.982C297.067 217.14 296.345 210.607 294.542 208.302C291.657 205.228 285.886 206.765 282.279 208.302H281.557C285.164 202.922 293.821 204.459 297.788 208.302L297.427 208.686Z" fill="#769DCB"/>
<path d="M297.427 208.686C293.821 204.844 284.804 203.307 281.197 208.686C279.393 211.76 280.115 217.908 277.229 216.371C277.229 214.45 278.311 208.686 278.672 207.533C281.557 201.385 294.181 202.154 297.067 208.686H297.427Z" fill="#E6E3FE"/>
<path d="M294.542 208.686H282.279C285.886 207.149 291.657 205.612 294.542 208.686Z" fill="#98EBFF"/>
<path d="M384.352 83.0369C391.566 81.1156 396.615 91.8746 389.041 94.1801C379.663 96.8698 378.22 84.9581 384.352 83.0369Z" fill="#2B1F56"/>
<path d="M384.352 84.958C390.123 83.0368 394.451 90.7218 389.041 92.643C382.548 94.9485 379.302 86.8793 384.352 84.958Z" fill="#B4F3FF" fill-opacity="0.8"/>
<path d="M386.516 86.4952C388.68 86.4952 390.484 89.5692 387.959 90.722C384.713 92.259 383.991 86.8795 386.516 86.4952Z" fill="#2E2A4F"/>
<path d="M329.528 234.047C345.759 264.787 374.974 276.314 403.829 255.18C407.435 252.491 415.37 242.5 416.092 242.116C417.174 241.732 417.174 242.5 417.534 242.885C410.321 260.176 400.222 267.861 384.352 273.624C383.63 273.624 384.352 275.93 383.991 276.314C364.154 282.462 331.692 262.097 325.2 240.963C324.118 237.889 323.757 225.209 323.757 221.751C325.921 225.978 327.725 230.204 329.889 234.431L329.528 234.047Z" fill="#462A8F"/>
<path d="M415.37 29.242C416.092 34.2372 430.158 55.3709 434.486 55.3709C434.486 55.3709 434.486 56.5237 434.486 56.9079C403.107 73.8149 378.22 114.93 390.844 153.739C390.844 156.044 391.926 157.965 392.287 160.655C392.287 160.655 392.287 161.424 391.565 161.424C355.858 145.285 315.462 186.4 328.085 227.13C328.085 229.82 329.167 231.357 329.528 234.047C327.364 229.82 325.561 225.593 323.396 221.367C323.396 179.099 350.808 146.054 389.762 158.734C378.941 131.452 387.958 99.1753 405.992 78.0416C411.763 71.1251 425.109 63.0559 429.076 57.6764C429.076 57.6764 430.519 57.6764 430.519 57.2922C429.797 56.5237 429.437 56.1394 429.076 55.3709C427.633 51.9127 425.83 49.6072 423.666 46.9174C420.059 42.3064 416.452 33.0845 410.681 31.9317C412.124 29.6262 409.239 29.6262 409.96 27.3207C409.96 26.5522 412.124 25.3995 412.124 25.3995C412.124 28.8577 411.403 30.0105 415.01 29.6262L415.37 29.242Z" fill="#2B1F56"/>
<path d="M410.682 31.9317C416.453 33.0845 420.059 42.6907 423.666 46.9175C422.945 45.7647 414.649 36.1585 414.289 35.7742C405.993 30.3947 383.27 34.2372 373.532 33.853C383.991 38.0797 400.943 32.316 410.682 35.7742C416.453 38.0797 422.945 52.6812 429.437 54.9867C429.437 55.7552 430.159 56.5237 430.88 56.9079C430.88 57.6764 429.437 56.9079 429.437 57.2922C424.027 54.9867 420.059 50.3757 415.731 46.149C415.731 46.149 413.206 41.1537 412.846 40.7695C404.189 33.0845 384.713 40.001 373.892 37.3112V125.689C373.171 128.378 370.646 128.378 369.925 129.531L369.203 128.763L372.089 125.689C372.81 94.1801 370.646 61.5189 373.171 30.779C374.974 29.6262 408.157 30.0105 411.042 30.779L410.682 31.9317Z" fill="#63F6FF"/>
<path d="M424.387 219.061C420.059 247.495 410.321 267.092 383.991 276.314C383.991 276.314 383.991 274.009 384.352 273.624C400.222 267.861 410.321 260.176 417.534 242.884C416.813 242.5 416.813 241.347 416.092 242.116C415.37 242.5 407.435 252.491 403.829 255.18C398.779 256.333 394.09 258.639 389.401 260.176C385.794 254.028 396.976 253.259 401.304 250.185C418.256 238.273 414.288 226.362 422.223 216.755C424.748 213.681 422.945 218.677 424.387 218.677V219.061Z" fill="#3461F8"/>
<path d="M415.37 46.9175C419.698 51.1442 423.666 55.371 429.076 58.0607C425.469 63.4402 412.124 71.1252 405.992 78.4259C404.55 72.6622 400.582 79.1944 397.697 74.9677C401.664 74.9677 408.517 74.1992 410.681 70.3567C412.845 66.5142 412.845 51.1442 410.681 47.3017H415.37V46.9175Z" fill="#69B6FF"/>
<path d="M400.943 165.651C405.632 171.03 409.6 178.331 413.928 184.094C412.485 182.942 409.239 179.099 408.878 179.099C407.796 179.099 401.665 182.557 401.665 182.942C401.665 182.942 403.468 186.784 403.829 187.553C372.449 148.744 319.429 191.779 347.202 235.584C340.71 229.052 342.152 222.135 332.053 228.667C331.332 226.362 330.971 222.519 330.61 220.214C328.086 197.543 337.103 177.946 355.497 167.188C368.121 159.887 379.302 162.192 391.926 161.424C393.008 161.424 392.648 160.655 392.648 160.655C398.419 160.271 397.697 161.808 400.943 165.651Z" fill="#64B2E8"/>
<path d="M380.024 249.417C403.829 245.574 414.288 219.445 408.157 195.622C410.321 200.233 413.567 203.691 414.288 209.455C417.534 233.663 400.943 253.259 379.663 255.565V249.801L380.024 249.417Z" fill="#3461F8"/>
<path d="M332.053 229.051C339.627 257.102 368.842 266.708 389.401 260.176C394.451 258.639 398.779 256.333 403.829 255.18C374.974 276.314 346.12 265.171 329.528 234.047C329.167 231.741 328.085 229.82 328.085 227.13C328.085 224.44 328.085 220.598 330.25 220.214C330.25 222.519 330.971 226.362 331.692 228.667L332.053 229.051Z" fill="#69B6FF"/>
<path d="M391.565 161.424C378.942 162.192 367.76 159.887 355.137 167.187C336.742 177.946 327.725 197.543 330.25 220.214C327.725 220.214 327.725 224.44 328.085 227.13C315.462 186.4 355.858 144.901 391.565 161.424Z" fill="#B4F3FF" fill-opacity="0.8"/>
<path d="M423.666 46.9176C425.83 49.6073 427.634 51.9128 429.076 55.3711C422.584 52.6813 416.092 38.0799 410.321 36.1586C400.583 32.3161 383.631 38.0799 373.171 34.2374C383.27 35.0059 405.993 31.1634 413.928 36.1586C414.649 36.5429 422.584 46.1491 423.305 47.3019L423.666 46.9176Z" fill="#6D9ACC"/>
<path d="M410.682 46.9175C412.846 51.1443 412.846 66.13 410.682 69.9725C408.517 73.815 401.665 74.5835 397.697 74.5835C393.73 74.5835 387.237 75.352 385.434 70.741C384.352 67.667 384.352 49.9915 385.434 47.3018C387.598 41.9223 407.796 41.538 410.682 46.9175Z" fill="#2C2A3D"/>
<path d="M386.876 61.1347C389.041 61.1347 388.319 59.982 388.319 58.445C389.041 68.4355 405.632 68.8197 407.435 60.3663C408.157 57.2923 406.353 51.9128 407.435 49.9915C407.435 49.9915 408.157 49.9915 408.157 49.223C410.681 53.0655 409.96 68.0512 406.353 70.3567C404.91 71.1252 391.926 71.8937 390.123 71.1252C386.876 69.9725 386.876 64.2087 386.516 61.1347H386.876Z" fill="#769DCB"/>
<path d="M408.518 49.6072L407.796 50.3757C405.993 47.686 394.09 49.6072 392.287 50.3757C388.68 52.297 389.041 55.7552 388.68 58.8292C388.68 60.3662 389.401 61.519 387.237 61.519C387.237 59.2135 387.237 53.0655 387.959 51.1442C390.123 45.7647 405.632 45.7647 408.518 49.9915V49.6072Z" fill="#4AFEFF"/>
<path d="M407.796 50.3758C406.714 52.297 408.518 58.0608 407.796 60.7505C405.993 69.204 389.402 68.8198 388.68 58.8293C388.68 55.7553 388.68 52.297 392.287 50.3758C394.09 49.6073 406.354 47.686 407.796 50.3758Z" fill="#5EC5FF"/>
<path d="M413.928 184.479C421.502 191.011 425.83 196.775 434.487 202.923C439.536 205.228 437.372 209.839 437.372 210.223C440.979 216.371 451.799 224.056 457.209 232.125C461.538 238.273 467.669 250.954 470.915 257.87C480.293 278.235 486.425 301.29 495.442 322.04C495.442 325.498 488.589 320.887 485.343 323.577C473.44 298.216 464.423 271.703 453.242 245.958C452.16 242.116 450.717 240.963 449.274 238.273C443.864 226.746 435.208 213.682 424.027 209.071C425.83 212.145 424.387 215.603 424.027 218.677C422.584 218.677 424.027 213.682 421.863 216.756C413.928 226.362 417.895 238.273 400.943 250.185C396.615 253.259 385.434 254.028 389.041 260.176C368.482 266.708 339.267 256.717 331.692 229.052C341.791 222.135 340.349 229.051 346.841 235.968C357.301 246.343 365.236 251.722 379.663 249.417V255.18C400.943 253.259 417.174 233.662 413.928 209.071C413.206 203.307 409.96 199.849 407.796 195.238C406.714 192.548 404.55 190.242 403.107 187.553C403.107 186.784 400.583 183.326 400.943 182.942C400.943 182.557 407.075 178.715 408.157 179.099C408.157 179.099 411.764 182.942 413.206 184.094L413.928 184.479Z" fill="#6D9ACC"/>
<path d="M449.635 238.273C450.717 240.963 452.521 241.732 453.603 245.958C453.603 247.111 453.603 249.417 453.603 250.569C453.603 251.338 455.045 250.569 455.045 251.338C455.045 251.722 452.16 250.954 453.603 259.023C455.406 269.782 479.211 332.414 484.982 342.405C489.671 350.474 503.377 359.696 499.409 369.687C492.917 365.46 486.425 361.617 481.014 356.238C453.603 328.572 445.668 279.004 422.945 247.495C422.945 246.343 425.83 237.505 426.552 237.505C429.437 235.968 445.307 241.732 449.996 238.273H449.635Z" fill="#2B47A8"/>
<path d="M562.889 342.021C560.003 351.627 539.805 375.066 530.788 375.835C514.558 362.386 506.623 340.868 497.966 320.887C501.934 318.197 505.18 323.193 509.147 325.114C527.903 333.952 548.462 333.183 565.414 319.35C565.053 327.035 565.414 334.72 563.25 342.021H562.889Z" fill="#EB00DC"/>
<path d="M501.573 61.1348C503.377 61.9033 509.869 62.6718 510.229 62.6718C512.754 63.8245 517.082 68.8198 519.607 69.5883C522.853 73.0465 525.739 77.6575 529.706 80.7315C537.281 92.259 541.609 100.712 545.937 114.545C544.494 114.545 545.216 116.082 545.216 117.235C545.216 117.235 543.773 120.693 543.773 121.078C543.773 124.92 547.74 150.665 539.805 142.596C539.805 139.906 539.805 136.832 539.805 134.142C539.805 132.605 539.805 131.452 539.805 129.915C539.805 129.915 539.805 129.531 539.805 129.147C536.92 95.7172 514.197 66.13 484.621 57.2923C489.31 54.9868 495.802 61.1348 499.409 62.2875C500.491 62.2875 500.852 61.1348 501.212 61.519L501.573 61.1348Z" fill="#679DE1"/>
<path d="M527.542 375.066C520.329 378.524 507.705 362.77 503.016 357.006C495.081 346.632 490.753 335.488 485.343 323.577C488.228 320.887 495.081 325.498 495.442 322.04C500.491 333.567 517.443 370.455 527.542 375.066Z" fill="#3B56AE"/>
<path d="M539.084 165.65C538.363 168.34 536.559 172.183 535.117 174.872C521.411 202.538 490.392 220.598 462.259 220.214C460.816 220.982 468.03 239.81 468.751 242.116C477.047 268.629 486.785 295.142 497.966 320.503C506.623 340.099 514.558 361.617 530.788 375.45C528.985 375.45 528.985 375.45 527.903 374.682C517.804 370.071 500.852 333.183 495.802 321.656C486.785 300.906 480.654 278.235 471.276 257.486L460.456 217.908C465.505 219.061 481.375 215.987 486.785 214.45C509.508 207.918 529.346 186.784 539.084 163.729C539.084 164.113 539.084 164.882 539.084 165.266V165.65Z" fill="#2B1F56"/>
<path d="M481.014 356.238L479.572 358.928C458.292 335.873 446.389 300.906 433.044 271.703C431.601 268.245 421.863 252.491 421.502 251.338C421.502 250.57 422.945 248.648 422.945 247.496C445.668 279.004 453.603 328.572 481.014 356.238Z" fill="#7086B7"/>
<path d="M482.457 16.5618V15.7933C482.457 15.7933 481.736 12.3351 480.654 11.5666C478.49 10.7981 439.897 11.5666 437.733 12.3351C437.011 12.3351 437.733 13.8721 437.372 13.8721C437.372 13.8721 438.093 16.9461 435.929 16.5618C434.847 16.5618 432.683 16.9461 431.962 16.1776C432.683 14.2563 433.044 7.33985 434.486 6.57135C436.651 5.4186 480.293 5.4186 482.818 6.57135C484.621 7.33985 487.507 14.6406 482.457 16.5618Z" fill="#9186F9"/>
<path d="M571.906 311.665C571.906 311.665 570.463 307.823 570.463 307.438C570.463 281.309 569.021 254.796 565.775 229.436C561.807 197.159 555.315 162.576 547.741 131.068L545.937 134.526C545.937 131.068 545.576 126.841 545.937 123.383C545.937 123.383 547.019 120.309 547.38 119.925C559.282 163.345 576.595 267.861 571.906 311.281V311.665Z" fill="#F6EAFF"/>
<path d="M506.262 55.371C509.508 56.908 512.393 59.2134 515.279 60.7504V57.6764C515.279 57.6764 516.722 57.6764 517.443 59.5977C517.443 60.3662 516 62.6717 516 63.0559C516 63.4402 520.328 68.0512 521.41 69.2039C521.05 69.2039 520.328 69.2039 519.968 69.2039C496.523 45.3805 462.98 41.1537 434.486 56.5237C434.486 56.1395 434.486 54.9867 434.486 54.9867C436.65 54.9867 450.717 47.3017 456.127 46.5332C474.883 43.4592 489.31 47.3017 506.262 54.9867V55.371Z" fill="#252428"/>
<path d="M499.409 369.687C502.655 371.992 511.312 373.913 508.787 378.14C496.163 376.219 487.868 367.766 479.211 358.928L480.654 356.238C486.064 362.002 492.556 365.46 499.049 369.687H499.409Z" fill="#2B47A8"/>
<path d="M570.463 307.438C570.463 307.438 571.545 311.281 571.906 311.665C570.824 322.04 567.217 332.799 562.889 342.021C565.414 334.72 564.692 327.035 565.053 319.35C565.053 318.197 565.774 316.66 565.774 314.355C569.381 315.892 564.692 307.438 570.463 307.438Z" fill="#F490FE"/>
<path d="M482.457 15.7931V16.5616C477.768 18.4829 441.339 18.0986 435.929 16.5616C438.454 16.9459 437.011 14.2561 437.372 13.8719L482.457 15.4089V15.7931Z" fill="#334A8E"/>
<path d="M521.411 69.5881C524.296 73.4306 527.182 76.5046 529.706 80.7314C525.739 77.6574 523.214 73.0464 519.607 69.5881C519.968 69.5881 520.689 69.5881 521.05 69.5881H521.411Z" fill="#8DDAFF"/>
<path d="M547.38 120.309C547.38 120.309 545.937 123.383 545.937 123.767L545.216 116.851C545.216 116.851 544.494 114.545 545.937 114.161C546.658 116.082 547.019 118.003 547.38 119.925V120.309Z" fill="#9DC9DF"/>
<path d="M441.34 207.149C443.864 208.686 459.013 217.908 460.456 218.292L471.276 257.87C468.03 250.954 461.538 238.273 457.57 232.125C452.16 223.672 441.34 216.371 437.733 210.223C437.733 210.223 439.536 205.612 434.847 202.923C436.29 204.075 439.897 205.997 441.7 207.149H441.34Z" fill="#4B7FDA"/>
<path d="M541.248 169.877C537.281 207.149 517.804 234.815 490.753 256.333C507.344 282.462 535.838 306.286 565.775 304.749C565.775 308.207 565.775 310.897 565.775 313.971C565.775 316.276 565.053 317.813 565.053 318.966C548.462 332.799 527.903 333.952 508.787 324.73C505.18 322.808 501.934 317.813 497.606 320.503C486.785 295.142 477.047 268.629 468.391 242.116C468.391 238.274 468.391 239.811 470.194 238.658C477.408 235.584 486.064 235.2 493.999 230.973C508.426 223.672 534.395 194.469 536.92 177.178C537.281 174.488 537.641 174.488 535.117 174.488C536.559 171.798 538.363 167.956 539.084 165.266C540.888 163.729 540.888 161.424 541.248 159.503C543.052 162.576 541.248 166.419 541.248 169.493V169.877Z" fill="#FC1DCF" fill-opacity="0.7"/>
<path d="M506.262 55.3709C489.31 47.686 474.883 43.8435 456.127 46.9175C450.717 47.686 436.29 55.3709 434.486 55.3709C434.126 54.2182 415.344 30.0732 414.623 29.3047C414.623 23.4899 416.567 23.4898 420.456 23.4899C420.456 23.4899 429.205 19.6135 432.121 22.5208C431.149 18.6443 436.982 40.9339 435.929 37.6955C438.093 40.7695 439.536 44.612 442.421 46.9175C463.702 44.2277 487.867 41.1537 506.262 55.3709Z" fill="#BF4692"/>
<path d="M503.377 32.7003C507.705 40.0011 511.312 49.9916 515.64 58.0608V61.1348C512.394 59.5978 509.869 57.2923 506.623 55.7553C487.534 41.9031 472.952 44.8105 442.782 47.3018C439.897 44.9963 439.619 43.7882 437.954 40.934C437.954 40.934 436.01 39.9649 435.038 34.1502C434.066 29.3047 434.066 30.2738 432.122 22.5207C442.581 21.7522 484.261 21.1729 492.556 23.0941C498.688 24.2469 499.049 30.3949 503.737 33.0846L503.377 32.7003Z" fill="#FF57AB" fill-opacity="0.7"/>
<path d="M503.377 32.7002C498.688 30.0104 498.327 23.8624 492.195 22.7097C483.9 20.7885 439.897 21.9412 429.076 22.7097C426.912 22.7097 417.174 23.4782 416.092 24.2467C416.092 25.3994 415.37 29.2419 415.37 29.2419C411.763 29.6262 412.124 28.4734 412.485 25.0152C412.846 24.2467 412.846 21.557 414.288 20.7885H492.195C497.966 21.9412 500.13 27.7049 503.377 32.7002Z" fill="#FFC0FF"/>
<path d="M496.884 30.779C499.048 31.9317 507.705 50.3757 505.901 51.1442L496.884 30.779Z" fill="#BF4692"/>
<path d="M519.968 69.5883C517.082 68.8198 513.115 63.8246 510.59 62.6718C509.869 62.6718 503.737 61.5191 501.934 61.1348C499.409 59.9821 496.523 56.9081 493.999 56.1396C488.588 54.2183 470.915 50.7601 465.866 51.9128C464.423 51.9128 463.701 53.0656 463.341 54.6026C438.093 55.7553 403.468 84.574 396.254 111.856C397.336 106.476 397.697 101.481 401.664 97.2542C387.598 111.471 389.762 134.911 391.565 154.123C378.941 115.314 403.828 74.1993 435.208 57.2923C463.701 41.9223 497.606 46.1491 520.689 69.9725L519.968 69.5883Z" fill="#4AFEFF"/>
<path d="M545.937 123.767C545.577 127.226 545.937 131.068 545.937 134.911C545.937 137.985 545.937 141.059 545.216 144.133C544.495 149.512 542.691 154.892 541.248 160.271C540.527 162.192 540.527 164.882 539.084 166.035C539.084 165.651 539.084 164.882 539.084 164.498C539.084 161.424 541.248 159.503 537.642 158.734C539.445 153.355 539.445 148.359 539.806 142.596C547.38 150.665 543.413 124.92 543.773 121.078C543.773 121.078 545.216 117.619 545.216 117.235L545.937 124.152V123.767Z" fill="#3A253A"/>
<path d="M501.574 61.1346C501.574 61.1346 500.852 62.2873 499.77 61.9031C495.803 60.7503 489.671 54.6023 484.982 56.9078C482.818 56.1393 478.49 54.2181 476.686 56.1393C472.719 55.3708 466.587 54.2181 462.981 54.6023C463.341 53.4496 464.423 52.2968 465.505 51.9126C470.916 50.7598 488.589 54.2181 493.639 56.1393C496.163 57.2921 499.049 59.9818 501.574 61.1346Z" fill="#64D9FD"/>
<path d="M395.533 111.855C391.566 131.452 393.008 147.591 400.943 165.65C397.697 161.808 398.058 160.271 392.648 160.655C392.287 158.35 391.205 156.428 391.205 153.739C389.401 134.526 387.237 111.087 401.304 96.8698C397.336 101.096 396.976 106.476 395.894 111.471L395.533 111.855Z" fill="#6ECFFF"/>
<path d="M468.751 242.5C468.03 240.195 460.816 221.366 462.259 220.598C490.392 220.598 521.771 202.538 535.117 175.257C538.002 175.257 537.281 175.257 536.92 177.946C534.395 195.238 508.426 224.44 493.999 231.741C486.064 235.968 477.768 236.352 470.194 239.426C468.03 240.195 468.03 239.042 468.391 242.884L468.751 242.5Z" fill="#C900BA"/>
<path d="M539.084 164.113C529.346 187.168 509.148 207.918 486.785 214.834C481.375 216.371 465.505 219.445 460.456 218.293C459.013 218.293 443.864 208.686 441.339 207.149C469.833 220.982 502.295 208.686 522.493 184.094C526.821 179.099 535.838 164.498 537.641 158.35C541.248 159.502 539.445 161.039 539.084 164.113Z" fill="#256CDE"/>
<path d="M482.457 15.7932L437.372 14.2562C437.372 14.2562 437.372 13.1034 437.733 12.7192C439.536 11.5664 478.49 11.1822 480.654 11.9507C482.096 12.7192 481.736 15.0247 482.457 16.1774V15.7932Z" fill="#2B1F56"/>
<path d="M570.464 307.438C564.693 307.438 569.382 315.892 565.775 314.355C565.775 310.897 565.775 308.591 565.775 305.133C565.775 298.601 564.332 292.069 563.611 285.921C564.693 285.536 565.775 284.384 565.775 282.847C566.496 268.245 558.561 222.519 555.676 206.381L544.855 144.133C545.216 141.059 545.577 137.985 545.577 134.911L547.38 131.452C554.954 162.961 561.447 197.159 565.414 229.82C568.66 255.181 570.103 281.694 570.103 307.823L570.464 307.438Z" fill="#8DDAFF"/>
<path d="M546.659 177.562C554.594 205.228 560.364 255.565 563.611 285.536C564.332 291.684 565.414 298.601 565.775 304.749C535.838 305.902 507.344 282.462 490.753 256.333C517.804 234.815 537.281 207.149 541.248 169.877C542.691 169.493 547.38 174.873 547.38 175.257C547.38 175.257 546.298 176.025 546.659 177.178V177.562Z" fill="url(#paint1_linear_106_35)"/>
<path d="M556.036 206.381C554.593 197.543 554.233 182.942 547.019 177.562C546.658 176.025 547.74 175.641 547.74 175.641C547.74 175.257 543.052 169.877 541.609 170.261C541.609 167.187 543.412 162.961 541.609 160.271C543.052 154.891 544.494 149.512 545.576 144.132L556.397 206.381H556.036Z" fill="#70BFF9"/>
<path d="M556.036 206.381C558.561 222.135 566.496 267.861 566.135 282.847C566.135 283.999 565.053 285.152 563.971 285.921C560.725 255.949 554.954 205.612 547.019 177.947C554.233 183.326 554.593 197.543 556.036 206.765V206.381Z" fill="#7AF2FF"/>
<path d="M462.62 54.6023C466.227 54.6023 472.719 55.3708 476.326 56.1393C500.852 61.1345 525.378 84.1895 534.395 109.55C536.559 115.698 536.559 123.383 539.806 128.378C539.806 128.378 539.806 128.762 539.806 129.147V133.373C539.806 136.063 539.806 139.137 539.806 141.827C539.806 147.591 539.084 152.202 537.641 157.965C535.838 164.113 526.46 178.331 522.493 183.71C502.295 208.302 470.194 220.598 441.34 206.765C439.536 205.612 435.929 203.691 434.487 202.538C425.83 196.39 421.502 190.626 413.928 184.094C409.6 178.331 405.632 171.03 400.943 165.65C393.008 147.206 391.566 131.452 395.533 111.855C402.747 84.5737 437.733 55.3708 462.62 54.6023Z" fill="url(#paint2_linear_106_35)"/>
<path d="M484.982 56.9078C514.197 65.7455 537.281 95.3327 540.166 128.762C536.92 123.383 536.92 115.698 534.756 109.934C525.739 84.5737 500.852 61.1345 476.686 56.5235C478.85 54.6023 482.818 56.5235 484.982 57.292V56.9078Z" fill="#FFC0FF"/>
<path d="M446.75 72.2777C446.028 81.1154 443.864 81.8839 447.471 91.4902C448.914 95.7169 451.799 99.9436 455.767 101.481C465.144 105.707 478.129 102.249 481.014 90.3374C482.096 85.7264 481.014 82.2682 481.736 78.4257C481.736 78.4257 482.818 78.4257 482.457 76.8887C484.261 83.0367 485.703 81.4997 483.9 89.5689C480.293 106.86 460.095 112.624 448.914 100.712C441.7 93.0271 441.339 78.4257 446.75 69.588C446.75 70.3564 446.75 71.125 446.75 72.2777Z" fill="#343140"/>
<path d="M526.821 147.206C529.345 149.128 527.903 149.896 526.821 151.817C522.492 159.886 512.033 162.96 504.098 160.655C503.016 160.655 491.474 153.739 490.752 152.586C488.588 149.896 485.703 139.521 487.867 136.063C492.556 156.813 516 164.882 526.821 147.206Z" fill="#6D83D9"/>
<path d="M448.914 100.712C460.456 113.008 480.654 106.86 483.9 89.569C490.392 91.8745 481.015 105.707 477.408 108.013C468.752 114.161 452.521 112.624 448.914 100.328V100.712Z" fill="#5A91D4"/>
<path d="M407.075 150.665C419.338 161.808 438.815 153.739 441.34 136.447C445.307 137.984 440.257 147.975 439.175 150.28C434.487 158.35 425.83 162.192 417.535 160.655C415.01 160.271 404.55 154.891 407.075 150.665Z" fill="#6D83D9"/>
<path d="M482.457 77.273L481.736 78.81C481.015 76.1203 479.933 74.199 478.851 71.8936C470.194 58.0606 455.767 59.2133 446.75 71.8936C446.75 71.1251 446.75 70.3566 446.75 69.2038C456.128 53.0653 477.047 57.6763 482.818 76.8888L482.457 77.273Z" fill="#182417"/>
<path d="M526.821 147.206C516 164.882 492.556 156.812 487.867 136.063C483.178 115.314 506.623 101.096 521.771 113.392C530.788 120.309 532.592 137.6 526.821 147.206Z" fill="#332A41"/>
<path d="M526.821 134.526C526.821 151.817 503.377 160.271 494.72 145.669C476.686 115.314 526.46 101.096 526.821 134.526Z" fill="#69B6FF"/>
<path d="M526.821 134.526C526.46 100.712 476.686 114.929 494.72 145.669C472.358 113.008 526.46 94.1799 526.821 134.526Z" fill="#B4F3FF" fill-opacity="0.8"/>
<path d="M460.095 156.428C489.31 152.97 492.556 201.385 465.505 204.459C438.454 207.533 435.569 159.118 460.095 156.428Z" fill="#332A41"/>
<path d="M457.931 164.114C487.507 159.118 483.9 202.538 455.046 195.622L460.095 198.696L473.44 197.159C464.423 202.923 452.521 201.001 447.471 190.242C449.996 187.553 446.75 184.863 446.75 184.094C446.75 174.872 448.914 165.651 458.292 164.114H457.931Z" fill="#35C3F2"/>
<path d="M481.736 176.793C482.457 184.863 479.572 192.932 473.44 197.159L460.095 198.696L455.046 195.622C483.9 202.154 487.507 159.118 457.931 164.113C468.751 157.965 475.965 167.571 481.736 176.793Z" fill="#256CDE"/>
<path d="M481.736 176.794C476.326 167.572 469.112 157.965 457.931 164.113C448.553 165.65 446.028 174.872 446.389 184.094C446.389 185.247 449.635 187.937 447.11 190.242C432.683 159.502 478.49 146.054 481.375 176.794H481.736Z" fill="#A0F3FF"/>
<path d="M441.339 136.447C438.454 154.123 418.977 162.192 407.075 150.665C396.254 140.674 398.058 114.161 412.845 109.166C429.437 103.786 444.585 117.235 441.339 136.063V136.447Z" fill="#2E2B39"/>
<path d="M407.796 145.669C404.189 141.443 403.107 137.984 402.386 132.221C404.189 124.151 408.878 115.314 416.813 113.777C418.977 116.466 423.666 115.314 427.273 117.235C448.914 127.994 423.666 159.887 406.714 141.827L407.796 146.054V145.669Z" fill="#53D1FF"/>
<path d="M438.093 127.994C442.782 147.206 420.059 161.039 407.435 145.669L406.353 141.443C423.666 159.887 448.914 127.61 426.912 116.851C423.666 115.314 418.617 116.082 416.452 113.392C425.469 111.471 435.569 117.235 437.733 127.61L438.093 127.994Z" fill="#AB00DC"/>
<path d="M438.093 127.994C435.569 117.619 425.83 111.855 416.813 113.777C408.878 115.314 404.189 124.151 402.386 132.221C399.861 106.092 435.569 102.249 438.454 127.994H438.093Z" fill="#FFC0FF"/>
<path d="M478.129 87.2635C475.604 98.791 458.291 101.096 451.078 94.18L456.127 101.865C452.16 99.9437 449.274 95.717 447.832 91.8745C449.635 88.032 446.75 84.1895 447.11 79.5785C447.832 73.0463 455.767 66.514 461.538 65.7455C463.341 68.8195 468.03 68.8195 470.915 70.7408C476.325 74.5833 479.932 80.347 478.129 87.6477V87.2635Z" fill="#36F0FF"/>
<path d="M481.015 90.7217C478.129 102.633 465.145 105.707 455.767 101.865L450.717 94.18C457.931 101.481 475.244 98.791 477.769 87.2635L479.572 85.7265L480.654 90.7217H481.015Z" fill="#6D83D8"/>
<path d="M478.85 72.2778C472.719 67.6668 469.473 64.5928 461.177 65.3613C455.406 66.1298 447.471 72.662 446.75 79.1943C446.389 83.8052 449.275 87.2635 447.471 91.4902C443.504 81.884 446.028 81.1155 446.75 72.2778C455.767 59.5975 470.194 58.4448 478.85 72.2778Z" fill="#FFC0FF"/>
<path d="M478.85 72.2777C480.293 74.5832 481.375 76.5044 481.736 79.1942C481.015 83.0367 482.097 86.1107 481.015 91.1059L479.932 86.1107L478.129 87.6477C479.932 80.3469 476.326 74.5832 470.915 70.7407C468.03 68.8194 463.341 68.8194 461.538 65.7455C469.833 64.5927 473.08 68.0509 479.211 72.6619L478.85 72.2777Z" fill="#70BFF9"/>
<path d="M403.829 187.553C404.911 190.242 407.075 192.548 408.517 195.238C414.288 219.445 404.189 245.19 380.384 249.032C365.596 251.338 358.022 245.958 347.562 235.584C319.79 191.779 372.81 148.743 404.189 187.553H403.829Z" fill="#181034"/>
<path d="M405.993 214.834C406.354 242.116 366.318 258.254 349.366 229.82C351.169 228.667 351.53 229.82 350.809 227.898C350.448 226.361 346.841 220.982 346.841 218.677C346.841 216.755 350.448 219.445 350.448 215.603C352.612 221.366 354.055 226.361 359.104 229.82C359.104 229.82 359.465 230.204 359.826 230.588C358.022 236.736 372.45 239.042 375.335 239.042C387.598 238.657 400.222 225.209 400.943 212.144C406.354 209.839 400.943 214.066 405.632 214.834H405.993Z" fill="#2F2C34"/>
<path d="M393.008 184.478C383.991 180.252 367.4 179.483 359.104 185.247C346.12 194.085 347.202 206.765 345.759 221.366C336.021 187.937 368.121 165.266 393.008 184.094V184.478Z" fill="#EED5EB"/>
<path d="M405.272 209.839C405.272 209.839 405.993 214.45 405.993 214.834C401.665 214.45 406.714 209.839 401.304 212.144C401.304 210.223 400.583 205.228 399.14 203.691C399.14 201.385 397.697 199.08 396.976 196.774C396.254 194.853 393.369 193.7 394.451 191.011C396.615 195.237 397.337 191.011 400.222 194.085C401.665 195.622 405.632 208.686 405.632 209.839H405.272Z" fill="#544980"/>
<path d="M393.008 200.233C395.172 205.228 393.369 209.839 392.287 214.45C385.073 222.135 372.81 230.588 362.35 223.672C358.744 221.366 359.465 215.603 362.711 213.681C364.154 212.913 376.417 209.839 377.138 209.455C380.384 207.533 386.155 199.848 391.566 198.311L392.648 199.848L393.008 200.233Z" fill="#CA3EB0"/>
<path d="M398.419 215.603C394.812 232.894 373.171 242.116 360.186 230.588C359.826 230.588 359.826 230.204 359.465 229.82C358.022 228.283 358.022 223.672 356.58 221.751C358.383 223.288 360.547 222.903 362.711 223.672C364.875 224.44 367.4 227.514 371.368 227.899C380.024 228.667 389.402 224.825 392.287 215.218H398.419V215.603Z" fill="#6A2459"/>
<path d="M396.976 197.159C397.697 199.08 399.14 201.385 399.14 204.075C399.14 207.533 399.14 212.529 398.419 215.987H392.287V215.218C393.369 210.607 395.172 205.996 393.008 201.001L396.976 197.543V197.159Z" fill="#7535B0"/>
<path d="M393.008 184.478C400.583 187.937 405.272 201.385 405.272 209.839C405.272 209.07 401.304 195.622 399.861 194.085C396.976 191.395 396.254 195.622 394.09 191.011C393.008 193.7 396.254 195.237 396.615 196.774L392.648 200.233L391.566 198.696C386.155 199.848 380.384 207.918 377.138 209.839C376.417 210.223 363.793 213.297 362.711 214.065C359.465 215.987 358.744 221.75 362.35 224.056C360.186 223.287 358.022 223.287 356.219 222.135C358.022 224.056 357.662 228.283 359.104 230.204C354.055 226.746 352.251 221.75 350.448 215.987C350.448 219.829 347.202 216.755 346.841 219.061C346.841 221.366 350.087 227.13 350.809 228.283C351.53 230.588 350.809 229.051 349.366 230.204C347.563 227.514 346.48 224.824 345.398 221.75C347.202 207.149 345.759 194.469 358.744 185.631C367.4 179.867 383.631 180.636 392.648 184.863L393.008 184.478Z" fill="#F158C9"/>
<path d="M371.367 183.71C376.417 183.325 387.598 186.399 389.041 192.932C380.745 184.862 371.007 182.557 361.629 189.473C357.662 192.163 355.497 198.311 352.251 201.001C353.333 192.932 364.875 184.478 371.728 183.71H371.367Z" fill="#E5C2E8"/>
<path d="M401.665 212.144C400.943 225.593 388.319 238.658 376.056 239.042C372.81 239.042 358.383 236.736 360.547 230.588C373.532 242.116 395.172 232.51 398.779 215.603C399.501 212.144 399.861 207.149 399.501 203.691C400.943 205.228 402.025 210.223 401.665 212.144Z" fill="#0F0E1B"/>
<path d="M392.287 214.834V215.603C389.041 225.209 380.024 229.051 371.367 228.283C367.4 228.283 364.875 224.825 362.711 224.056C372.81 230.972 385.073 222.519 392.647 214.834H392.287Z" fill="#F158C9"/>
<path d="M14.6537 197.159C9.60419 231.357 0.947835 290.916 7.80078 323.577C12.4896 345.095 27.2776 368.918 46.7544 375.066C48.1971 375.45 48.5578 377.756 48.5578 377.756C49.2791 377.756 52.8859 368.918 55.7714 368.534C52.8859 373.529 46.3937 379.677 54.6893 377.756C62.985 375.835 77.773 348.553 81.0191 340.484C91.1182 320.503 99.0532 299.369 107.71 279.004C113.841 280.925 110.234 273.624 115.284 271.319C110.234 286.689 102.299 305.133 96.1677 320.118C95.0857 322.424 82.1011 348.937 83.5439 349.706C92.2002 343.558 95.4463 332.414 100.135 322.808C108.07 305.517 119.612 282.078 118.53 262.865C118.891 259.791 120.333 257.87 116.366 257.102C124.662 237.889 131.154 221.751 149.549 211.76C151.352 211.76 150.27 213.681 150.631 214.45C149.549 227.514 156.041 238.273 163.615 247.495C163.254 247.495 162.533 248.264 162.533 248.264C162.533 248.264 159.648 242.116 158.205 244.421C162.172 249.417 164.697 256.717 169.025 261.713C163.976 259.407 157.844 251.722 156.041 245.958C156.041 245.574 158.926 239.81 154.959 238.658C149.909 237.505 154.237 246.343 154.598 248.648C150.991 250.185 147.384 256.333 145.581 260.176C130.072 288.61 121.415 324.345 101.939 350.474C99.0532 354.317 89.3148 362.002 88.2327 363.923C88.2327 363.923 88.2327 367.381 88.9541 367.765C84.2652 371.608 78.855 376.219 73.4448 378.909C71.6414 379.677 67.3132 378.909 65.8705 379.677C65.1491 379.677 65.8705 382.367 65.1491 383.135C64.0671 383.904 48.1971 381.983 45.6723 381.598C45.6723 381.598 44.2296 378.14 44.2296 381.598C43.1475 381.598 42.7869 381.214 42.0655 380.83C-13.8401 357.775 0.587154 262.481 7.07942 214.066L11.0469 196.006L15.0144 197.159H14.6537Z" fill="#2B47A8"/>
<path d="M163.755 22.0138C164.71 31.9377 152.264 41.1093 149.429 45.831C141.279 59.9961 136.891 47.7832 125.552 46.9963C113.15 46.6028 97.057 44.2419 87.4896 46.9963C83.2374 48.1767 77.9221 46.9963 77.2135 52.8984C75.0874 53.6853 72.6069 55.2592 70.4808 56.4397C72.6069 49.7506 82.1743 24.5682 87.1352 22.6008C93.1591 20.24 146.794 22.6009 157.07 22.6009L163.755 22.0138Z" fill="#BF4692"/>
<path d="M30.8844 126.073C30.8844 131.836 30.8844 137.216 31.6057 142.98C30.163 142.595 29.4417 145.669 29.4417 146.822C20.4246 191.779 11.7683 244.421 10.3255 290.531C7.07941 289.763 7.80078 301.29 10.3255 301.674C10.3255 303.211 10.3255 305.133 10.3255 306.67C10.3255 310.128 9.60418 314.355 11.0469 317.813C11.0469 317.813 9.96486 317.813 9.60418 317.429C8.52214 314.739 9.60418 310.512 7.44009 308.207L8.16146 323.961C1.30851 291.3 9.96486 231.741 15.0144 197.543C17.8999 177.178 21.8673 153.739 26.5562 133.758C27.6382 129.915 29.081 122.614 31.2451 120.309C31.2451 122.23 31.2451 124.536 31.2451 126.457L30.8844 126.073Z" fill="#7AF2FF"/>
<path d="M123.94 50.3757C127.186 51.1442 132.957 53.0654 136.203 54.6024C171.911 70.7409 196.437 116.467 180.567 158.35C176.96 156.428 187.781 142.211 178.403 144.901C181.649 119.925 176.239 98.7911 160.73 79.9629C152.073 69.5881 142.335 63.8244 132.957 57.2922C121.776 56.1394 109.874 51.1442 98.6924 55.7552C94.3643 54.2182 112.038 51.1442 113.12 53.0654L111.677 50.3757H124.301H123.94Z" fill="#70BFF9"/>
<path d="M180.567 158.35C180.567 158.35 180.567 161.424 180.567 161.808C180.567 162.576 180.207 162.961 179.846 163.345C176.96 171.798 157.484 194.085 150.27 199.464C138.368 209.07 122.137 215.218 107.71 217.14C102.299 216.371 98.3319 215.987 92.561 214.45L104.824 213.297C106.628 209.455 96.5285 213.297 97.6106 208.686C132.236 216.371 173.714 182.557 178.403 144.517C187.781 141.827 177.321 156.044 180.567 157.965V158.35Z" fill="#8195EC"/>
<path d="M123.94 50.3755H111.316L112.759 53.0652C111.677 50.7597 94.0035 53.8337 98.3316 55.755C109.873 51.144 121.415 56.1392 132.596 57.292C141.974 64.2084 151.712 69.5879 160.369 79.9627C136.564 59.5975 120.333 50.3755 90.036 59.5975C68.0344 66.1297 51.8038 82.6524 41.344 104.939C46.0329 85.7264 65.149 68.0509 81.0189 60.366C82.101 59.9817 101.578 54.6022 93.2821 53.4495C86.0685 52.681 67.313 65.7454 60.8208 70.3564C64.0669 66.5139 67.6737 63.4399 69.1165 58.4447C75.6087 54.218 81.7403 51.9125 88.9539 49.9912C101.217 46.9172 110.955 46.9172 123.219 49.9912L123.94 50.3755Z" fill="#B6F6FF"/>
<path d="M154.598 248.264C154.598 248.264 156.401 250.185 155.319 252.875C154.959 254.028 148.827 261.713 147.745 264.787C132.236 297.832 116.005 344.71 88.9539 367.381C88.5932 366.997 88.2325 363.923 88.2325 363.539C89.6753 361.617 99.053 353.932 101.938 350.09C121.415 323.961 130.072 288.226 145.581 259.791C147.384 256.333 150.991 250.185 154.598 248.264Z" fill="#9695FF"/>
<path d="M164.78 28.3354C164.78 28.3354 145.942 53.8338 144.499 54.6023C141.974 55.7551 139.45 53.4496 137.285 53.0653C118.169 48.0701 110.234 44.9961 90.0362 48.8386C84.9866 49.9913 81.7405 51.1441 77.0516 53.0653C77.773 47.3016 82.6792 46.548 87.0074 45.7795C96.7458 43.474 107.71 44.2276 120.333 44.6118C131.875 44.9961 131.515 52.6811 139.81 38.8481L141.974 39.6166C141.974 39.6166 138.007 47.6858 138.007 48.4543C147.384 52.6811 150.991 36.1584 157.123 30.3946C159.648 28.0891 164.058 18.6953 164.78 24.459V28.3354Z" fill="#BF4692"/>
<path d="M61.5424 70.3565C46.0331 87.6477 40.9836 91.4902 37.0161 116.851C34.4913 134.142 34.1306 147.206 38.4588 164.113C33.4092 150.28 31.9665 141.058 32.3272 126.073C33.0486 96.8697 46.7545 73.0462 69.8381 58.4448C68.3953 63.44 64.7885 66.514 61.5424 70.3565Z" fill="#FFC0FF"/>
<path d="M32.3273 126.073C32.3273 141.058 33.4094 150.28 38.4589 164.113C47.8366 190.242 68.0348 208.302 92.5611 214.834C98.332 216.371 102.3 216.371 107.71 217.524C110.956 217.908 113.841 218.677 117.087 218.292C118.891 219.445 117.087 220.214 117.448 220.982L114.563 228.667V227.13C114.563 227.13 116.005 221.366 115.645 221.366C94.7252 220.982 74.527 214.45 58.2964 199.464L40.2623 178.331C40.2623 178.331 39.541 176.409 38.8196 174.872C34.8521 164.882 32.3273 154.507 31.2453 143.748C30.5239 137.984 30.5239 132.605 30.5239 126.841H31.9667L32.3273 126.073Z" fill="#231D22"/>
<path d="M164.697 22.3254C159.287 23.4781 153.516 23.0939 147.745 23.0939C137.646 23.0939 92.9215 20.7884 86.4293 23.0939C78.855 20.4041 72.3627 41.5378 68.7559 48.8385C68.7559 48.8385 69.8379 49.607 69.4772 50.3755C69.4772 50.7598 63.3457 56.5235 63.3457 59.2133C62.2636 59.5975 60.4602 63.0558 60.4602 60.366C64.7884 53.0653 75.9695 22.3254 83.1831 20.4041C88.2327 19.2514 155.319 19.2514 161.09 20.4041C161.451 20.4041 163.976 21.5569 164.697 21.9411V22.3254Z" fill="#FFC0FF"/>
<path d="M86.79 23.478C81.7405 25.3993 72.0021 49.607 69.838 56.5235C67.6739 57.6762 65.8705 58.8289 63.7064 59.9817C63.7064 57.292 69.4773 51.5282 69.838 51.144C70.1987 50.3755 69.1166 49.607 69.1166 49.607C72.7235 42.3062 78.855 21.1725 86.79 23.8623V23.478Z" fill="#B6F6FF"/>
<path d="M136.925 52.6809L136.203 54.2179C132.957 52.6809 127.186 50.7597 123.94 49.9912C111.677 46.9172 101.938 46.9172 89.6753 49.9912V48.4542C110.234 44.6117 118.169 47.6857 136.925 52.6809Z" fill="#211A11"/>
<path d="M11.0468 317.429C11.0468 317.429 10.6861 319.734 11.4074 320.887C24.392 338.947 59.7387 328.956 75.248 320.887C76.3301 320.503 78.1335 320.118 79.2155 320.118C70.5592 339.331 62.9849 361.617 47.1149 375.066C27.2774 368.918 12.8502 345.095 8.1613 323.577L7.43994 307.822C9.60403 310.128 8.52199 314.355 9.60403 317.044C9.60403 317.813 11.0468 317.044 11.0468 317.429Z" fill="#EB00DC"/>
<path d="M81.3799 323.577C81.3799 323.577 87.1508 323.577 87.5115 324.729C84.2653 329.34 83.544 335.104 81.3799 340.484C78.1338 348.553 62.9851 375.835 55.0502 377.756C46.7545 379.293 53.2467 373.145 56.1322 368.534C65.8706 352.395 72.0022 339.331 79.9372 322.04C81.0192 322.04 79.9372 323.577 81.3799 323.577Z" fill="#3461F8"/>
<path d="M100.496 322.808L96.5286 320.119C102.66 304.749 110.595 286.689 115.645 271.319C116.366 269.013 118.53 265.171 118.53 262.865C119.612 282.078 108.07 305.517 100.135 322.808H100.496Z" fill="#6D9ACC"/>
<path d="M100.496 322.808C96.1675 332.414 92.5607 343.558 83.9043 349.706C82.4616 348.937 95.4462 322.424 96.5282 320.118L100.496 322.808Z" fill="#3461F8"/>
<path d="M79.9372 321.655C72.3629 338.947 65.8707 352.011 56.1323 368.15C53.2468 368.15 49.2793 377.372 48.9186 377.372C48.9186 377.372 48.9186 375.45 47.1152 374.682C62.9852 361.617 70.5595 338.947 79.2159 319.734C80.2979 317.044 81.7406 314.355 83.1834 311.281H83.9047C82.462 314.355 81.38 318.197 79.9372 321.271V321.655Z" fill="#491B4D"/>
<path d="M118.891 262.865C118.891 265.171 116.726 269.013 116.005 271.319C110.956 273.624 114.562 280.925 108.431 279.004C111.316 271.703 113.841 264.402 116.726 257.102C121.055 257.87 119.251 260.176 118.891 262.865Z" fill="#2B1F56"/>
<path d="M81.3799 323.577C81.3799 323.577 81.3799 322.04 79.9371 322.04C81.3799 318.581 82.4619 315.123 83.9046 312.049C89.6755 298.985 115.284 239.042 115.284 228.667L118.169 220.982C118.169 220.982 119.612 220.982 119.612 221.366C119.612 224.056 116.727 234.815 115.645 238.273C106.988 266.708 90.7576 295.527 81.3799 323.961V323.577Z" fill="#B4F3FF" fill-opacity="0.8"/>
<path d="M31.6056 142.98C32.6876 153.739 35.2124 164.113 39.1799 174.104C39.1799 173.335 35.9338 170.261 35.2124 168.724C38.4585 208.686 59.7387 231.741 85.7078 255.949C68.7558 284.383 39.9013 300.522 9.96472 306.67C9.96472 305.133 9.96472 303.211 9.96472 301.674C9.96472 298.216 9.96472 294.374 9.96472 290.531C11.4074 244.421 19.7031 191.779 29.0808 146.822C29.0808 145.669 29.8022 142.595 31.2449 142.98H31.6056Z" fill="#FE3AFD"/>
<path d="M75.2481 320.887C59.7388 328.956 24.3921 338.947 11.4075 320.887C10.6862 319.734 11.4075 318.197 11.0468 317.429C9.60412 313.97 10.3255 310.128 10.3255 306.285C40.262 300.522 69.1165 284.383 86.0685 255.565C87.5113 256.717 95.0856 262.481 95.0856 263.634L75.2481 320.503V320.887Z" fill="#C900BA"/>
<path d="M10.3258 290.531C10.3258 293.99 10.3258 297.832 10.3258 301.675C7.80103 301.675 7.07966 290.147 10.3258 290.531Z" fill="#FFC0FF"/>
<path d="M160.729 79.9628C175.878 98.791 181.288 119.925 178.403 144.901C173.714 182.557 132.596 216.756 97.6102 209.071C96.5282 213.682 106.627 209.839 104.824 213.682L92.5607 214.834C68.0343 208.302 47.8362 190.242 38.4585 164.113C34.1303 147.206 34.1303 134.142 37.0157 116.851C39.5405 116.467 38.4585 120.693 38.4585 122.614C38.8191 136.063 39.1798 146.822 44.59 159.118C46.3935 161.039 45.6721 159.502 46.7541 159.502C48.1969 159.502 51.0823 157.965 52.1644 157.965C62.6241 157.965 72.7232 159.118 83.1829 158.734V192.164C84.6257 194.469 86.7898 192.932 88.2325 193.316C90.3966 194.085 91.4786 194.085 93.6427 194.085C93.6427 196.006 92.5607 197.159 94.7247 198.312C96.1675 199.08 125.022 199.464 127.547 199.08C127.907 199.08 130.432 197.927 131.875 197.927C131.875 196.006 131.154 195.238 131.154 193.316C131.154 182.173 131.154 170.646 131.154 159.502L167.943 158.35L167.222 156.428C168.304 150.665 169.025 111.856 166.5 109.166L131.514 108.397C132.236 104.171 131.514 77.6573 130.793 72.2779C130.793 70.7409 130.072 70.7409 130.072 69.5881C130.072 69.5881 131.514 66.8984 129.711 65.3614C125.022 61.1346 97.9709 61.1346 91.8393 62.6716L91.1179 59.2134C121.415 49.9914 137.646 59.2134 161.451 79.5786L160.729 79.9628Z" fill="url(#paint3_linear_106_35)"/>
<path d="M90.3971 59.5974L91.1184 63.0556C91.1184 63.0556 88.233 63.4399 86.7903 63.8241C86.0689 64.5926 86.7903 66.8981 86.4296 68.0509C86.4296 68.8194 87.1509 71.1249 87.1509 72.2776C87.1509 73.0461 87.1509 73.8146 87.1509 74.9674C87.1509 75.3516 87.1509 76.1201 87.1509 76.5044L86.0689 71.5091C86.0689 71.5091 83.5441 75.3516 83.5441 76.1201C82.1014 84.9578 83.9048 98.0223 82.8228 106.86C72.0023 106.86 60.8212 108.013 50.0008 108.397C48.558 108.397 47.8367 109.166 46.0333 109.166C46.0333 109.166 46.0333 105.323 43.1478 108.781C42.0658 113.008 41.7051 120.309 38.459 122.614C38.459 120.309 39.1803 116.082 37.0162 116.851C40.9837 91.4901 46.0333 88.0318 61.5426 70.3564C68.0348 66.1296 86.7903 52.6809 94.0039 53.4494C102.3 54.6022 82.8228 59.5974 81.7407 60.3659C65.8707 68.0509 46.7546 85.7263 42.0658 104.939C52.5255 82.6524 68.3955 66.1296 90.7578 59.5974H90.3971Z" fill="#36F0FF"/>
<path d="M39.18 174.104C39.18 174.104 40.2621 176.409 40.6227 177.562C44.9509 186.784 47.8364 196.39 53.6073 204.844C68.0345 226.362 86.4293 234.431 109.513 239.81C101.217 264.018 92.5609 288.226 82.8225 311.665C81.7404 314.739 80.2977 317.429 78.855 320.119C77.7729 320.119 75.9695 320.119 74.8875 320.887L94.7249 264.018C94.7249 264.018 86.79 257.486 85.7079 255.949C60.0995 231.741 38.4587 208.686 35.2125 168.724C35.5732 170.261 38.8193 173.72 39.18 174.104Z" fill="#C900BA"/>
<path d="M114.923 226.362C113.841 230.973 110.955 235.584 109.513 239.81C86.4291 234.431 68.0343 226.362 53.6071 204.844C47.8362 196.006 44.9507 186.784 40.6226 177.562L58.6566 198.696C74.8873 213.681 95.0854 220.214 116.005 220.598C116.366 220.598 114.923 225.593 114.923 226.362Z" fill="#C900BA"/>
<path d="M114.923 228.283C114.923 238.658 89.3148 298.601 83.5439 311.665H82.8225C92.9216 288.226 101.578 264.402 109.513 239.81C110.956 235.584 113.841 230.588 114.923 226.362V227.899V228.283Z" fill="#66296C"/>
<path d="M46.0328 109.166L46.7542 159.887C46.7542 159.887 46.0328 161.424 44.5901 159.502C39.1799 147.206 38.8192 136.063 38.4585 122.999C41.7046 120.309 42.0653 113.392 43.1474 109.166C46.3935 105.707 46.0328 109.55 46.0328 109.55V109.166Z" fill="#36F0FF"/>
<path d="M87.5114 159.887C88.5935 167.956 88.2328 181.405 88.2328 190.242V193.701C88.2328 193.701 84.9867 194.469 83.5439 192.548V159.118C72.7235 159.502 62.6244 157.965 52.1647 158.35C52.1647 157.581 52.1647 156.044 52.1647 155.66H86.0687C86.0687 155.66 87.1508 158.35 87.1508 159.887H87.5114Z" fill="#70BFF9"/>
<path d="M50.0007 108.397C50.0007 108.397 50.0007 110.318 50.0007 111.087C50.0007 112.24 50.7221 111.855 50.7221 111.855C52.1648 124.92 49.2793 141.058 50.7221 154.123C50.7221 157.581 50.7221 154.123 52.1648 155.66C52.1648 155.66 52.1648 157.581 52.1648 158.349C51.0827 158.349 48.1973 159.886 46.7546 159.886L46.0332 109.166C46.0332 109.166 48.558 108.397 50.0007 108.397Z" fill="#53D1FF"/>
<path d="M129.35 69.5881C129.35 69.5881 130.072 70.7409 130.072 72.2779C128.629 71.5094 127.186 73.0464 127.186 73.0464C115.644 74.9676 99.4138 72.2779 87.5113 72.2779C87.5113 71.1251 86.7899 68.8196 86.7899 68.0511L129.711 69.5881H129.35Z" fill="#53D1FF"/>
<path d="M166.14 109.166C168.665 111.856 167.943 150.665 166.861 156.428C165.779 156.813 165.418 155.66 164.697 155.66C165.418 154.123 163.976 151.433 163.976 150.665C163.976 150.665 163.976 150.28 163.976 149.896C162.894 137.216 164.697 122.999 163.976 110.319C163.976 110.319 164.697 108.782 166.14 109.55V109.166Z" fill="#AB00DC"/>
<path d="M93.6427 194.469C103.02 195.237 120.333 195.622 129.711 194.469C130.432 194.469 130.432 193.7 131.154 193.7C131.154 195.622 131.875 196.39 131.875 198.311C130.793 198.311 128.268 199.464 127.547 199.464C125.022 199.464 96.1674 199.464 94.7247 198.696C92.5606 197.543 94.0034 196.39 93.6427 194.469Z" fill="#70BFF9"/>
<path d="M164.697 155.66C164.697 155.66 165.779 156.813 166.861 156.428C166.861 156.428 168.304 156.428 167.583 158.35L130.793 159.502C130.793 159.502 129.711 157.965 131.515 155.276C141.253 155.276 154.959 154.123 164.337 155.276L164.697 155.66Z" fill="#679DE1"/>
<path d="M130.072 72.2778C130.432 77.6573 131.514 104.17 130.793 108.397C130.793 108.397 129.711 108.397 130.072 109.934C129.35 109.934 129.35 109.934 129.35 110.703C128.99 110.703 127.908 110.703 127.908 110.318C125.744 102.249 130.072 82.2682 127.186 72.662C127.186 72.662 128.629 71.125 130.072 71.8935V72.2778Z" fill="#6B81D6"/>
<path d="M166.14 109.166L163.976 109.934C153.876 111.471 140.531 108.781 130.432 109.934C130.071 108.013 131.153 108.397 131.153 108.397L166.14 109.166Z" fill="#70BFF9"/>
<path d="M87.5114 76.5044C87.5114 86.4949 88.2327 97.2538 86.79 106.86H82.8225C83.9046 97.6381 82.1011 84.9579 83.5439 76.1201C83.5439 75.3516 84.6259 70.7407 86.0686 71.5091L87.1507 76.5044H87.5114Z" fill="#36F0FF"/>
<path d="M82.8226 106.86H86.7901C86.7901 106.86 88.5935 108.781 87.1508 110.318L67.674 111.087H50.0006C50.0006 111.087 50.0006 109.55 50.0006 108.397C60.821 107.629 72.0022 106.86 82.8226 106.86Z" fill="#70BFF9"/>
<path d="M129.35 69.588L86.4292 68.051C86.4292 68.051 86.0685 64.5927 86.7898 63.8242C87.8719 63.8242 90.036 63.44 91.118 63.0557C97.2496 61.1345 124.301 61.5187 128.99 65.7455C130.793 67.2825 128.99 69.588 129.35 69.9722V69.588Z" fill="#FFC0FF"/>
<path d="M98.3317 63.0557C98.3317 63.0557 111.316 63.0557 106.627 65.7455C104.824 66.8982 92.2001 64.5927 88.5933 66.1297C88.5933 64.2085 97.2496 63.0557 97.971 63.0557H98.3317Z" fill="#37FEFF"/>
<path d="M129.35 194.469C120.333 195.622 102.66 195.237 93.2822 194.469C91.1181 194.469 90.036 194.469 87.8719 193.7V190.242H88.5933L126.465 191.011C126.465 191.011 126.465 188.321 126.826 187.552C126.826 187.552 126.826 187.168 126.826 186.784C130.793 188.321 125.383 191.779 128.99 194.469H129.35Z" fill="#603176"/>
<path d="M131.875 155.66C130.072 158.35 131.154 157.965 131.154 159.887C131.154 171.03 131.154 182.557 131.154 193.701C130.433 193.701 130.433 194.469 129.711 194.469C126.104 191.779 131.515 188.321 127.547 186.784C128.99 177.178 126.826 166.035 128.268 155.66C129.711 156.428 131.154 155.66 132.236 155.66H131.875Z" fill="#AB00DC"/>
<path d="M88.9543 77.2729C90.397 87.2634 87.8722 100.712 88.9543 111.087H67.6741L87.1509 110.318C87.1509 110.318 86.7902 107.244 86.7902 106.86C88.5936 97.2539 87.5115 86.4949 87.5115 76.5044C87.5115 76.1202 87.5115 75.3517 87.5115 74.9674C87.8722 74.9674 88.9543 77.2729 88.9543 77.6571V77.2729Z" fill="#941CAA"/>
<path d="M88.9543 152.202C88.9543 152.202 88.2329 154.507 88.2329 154.891C88.2329 156.428 88.9543 158.734 87.5116 159.887C87.5116 158.35 88.2329 156.813 86.4295 155.66H52.5255C52.5255 155.66 51.4434 157.197 51.0828 154.123L87.8723 152.586C87.8723 152.586 88.9543 152.586 89.315 152.586L88.9543 152.202Z" fill="#603176"/>
<path d="M88.9543 156.428C87.8723 166.419 90.397 177.946 88.9543 187.553C88.9543 188.321 88.9543 189.09 88.9543 190.242H88.233C88.233 181.405 88.5936 167.956 87.5116 159.887C88.9543 158.734 87.8723 156.428 88.233 154.891C89.315 154.891 88.9543 156.428 88.9543 156.428Z" fill="#2F2C34"/>
<path d="M53.6074 111.855L54.3288 150.664C54.3288 150.664 82.1013 150.28 87.1508 152.201L50.3613 153.738C48.9186 140.674 51.804 124.92 50.3613 111.471C51.804 112.624 51.804 111.471 53.2468 111.471L53.6074 111.855Z" fill="#861498"/>
<path d="M67.6735 111.087H88.9537C88.9537 111.087 68.3949 111.855 65.1487 111.855C61.1812 111.855 57.5744 111.855 53.6069 111.855C52.1642 111.855 51.8035 113.008 50.7215 111.855C50.7215 111.855 50.3608 111.855 50.0001 111.087H67.6735Z" fill="#311838"/>
<path d="M163.976 149.896C163.976 149.896 163.976 150.28 163.976 150.664C163.976 151.817 162.533 151.433 161.812 151.433C150.631 151.433 139.089 151.433 127.908 151.433C126.826 152.586 128.629 153.354 128.269 154.123C128.269 154.507 128.269 155.275 128.269 155.66C126.826 166.034 128.99 177.178 127.547 186.784V187.552H126.826C125.744 176.793 128.629 163.345 126.105 152.97C124.662 146.822 115.645 140.29 111.677 135.294C111.677 135.294 112.038 132.22 113.481 131.836C114.202 132.989 115.284 133.757 116.005 134.526C117.448 135.679 126.465 147.206 127.187 147.206C127.187 147.206 127.908 144.901 128.629 144.516C136.564 143.748 144.499 143.748 152.434 143.748V116.85C152.434 116.85 156.041 116.466 156.762 117.235L158.566 149.512L160.369 111.471C160.369 111.471 162.173 111.471 162.533 112.624L163.976 149.127V149.896Z" fill="#2B1F56"/>
<path d="M163.976 110.318C164.697 123.383 162.894 137.216 163.976 149.896L162.533 113.392C162.533 113.392 161.09 112.24 160.369 112.24C158.926 111.855 133.318 111.855 130.433 112.24C130.433 111.471 130.433 111.471 129.711 111.471C129.711 110.703 129.711 110.703 130.433 110.703C140.892 109.55 153.877 112.24 163.976 110.703V110.318Z" fill="#221D2A"/>
<path d="M164.697 155.66C155.32 154.507 141.614 155.66 131.875 155.66C130.793 155.66 129.351 156.428 127.908 155.66C127.908 155.276 127.908 154.507 127.908 154.123L161.812 154.891V151.433C161.812 151.433 163.615 151.817 163.615 150.665C163.615 151.433 165.058 154.123 164.337 155.66H164.697Z" fill="#4D3958"/>
<path d="M125.022 186.784C125.022 186.784 125.022 187.937 126.465 187.553H127.186C127.186 187.553 127.547 190.242 126.826 191.011L88.954 190.242C88.954 190.242 88.954 188.705 88.954 187.553C90.7574 188.321 90.036 186.016 91.1181 186.016C96.5283 185.247 118.891 186.016 124.661 186.784H125.022Z" fill="#3459A1"/>
<path d="M130.072 111.855C132.957 111.471 158.565 111.471 160.008 111.855L158.205 149.896L156.401 117.619C156.401 117.619 153.516 117.619 152.434 117.235C150.63 117.235 132.596 116.082 131.514 116.466C130.432 116.466 117.087 132.221 116.005 134.91C114.923 134.142 114.202 133.373 113.48 132.221C112.038 132.605 111.677 135.295 111.677 135.679C104.824 141.058 94.0035 149.896 92.5608 158.35C90.3967 155.66 90.036 156.813 89.6753 156.813C89.6753 156.813 90.036 154.891 88.954 155.276C88.954 155.276 89.6753 153.354 89.6753 152.586C91.8394 146.054 100.496 138.369 105.906 133.373C106.627 132.605 107.349 131.452 108.07 130.684C110.595 128.378 126.465 112.624 127.547 112.24C128.268 112.24 130.072 112.24 131.154 112.24L130.072 111.855Z" fill="#9186F9"/>
<path d="M107.349 130.299C107.349 130.299 105.906 131.836 105.185 132.989C102.66 132.989 103.742 130.684 100.496 132.221C102.299 128.762 88.2328 116.466 87.1508 116.082C83.9047 114.929 66.2313 117.619 60.0997 116.851C59.0176 116.851 55.7715 116.082 56.1322 114.161C58.2963 111.855 65.1492 115.314 65.1492 111.471C68.3954 111.471 88.2328 112.24 88.9542 110.703C87.8721 100.328 90.3969 86.8792 88.9542 76.8887L125.744 75.736L90.7576 78.4257C93.643 87.2634 89.3149 105.323 91.479 113.008C91.8396 114.929 105.546 127.61 107.71 130.299H107.349Z" fill="#9695FF"/>
<path d="M59.739 142.98C66.9526 141.443 80.6585 146.822 86.7901 145.669C89.3148 144.901 97.2498 133.758 100.135 132.221C103.021 130.684 101.939 132.989 104.824 132.989C99.7746 138.369 91.1182 146.054 88.5935 152.202C88.2328 152.202 87.5114 152.202 87.1507 152.202C82.1012 150.28 55.7715 152.202 54.3287 150.665C55.7715 144.132 55.0501 137.216 55.0501 130.299L55.7715 149.128C61.903 151.049 59.3783 146.054 59.739 142.98Z" fill="#2B1F56"/>
<path d="M91.8398 158.35C90.397 166.419 91.8398 177.178 91.1184 185.247V186.016C91.1184 186.016 90.7577 188.321 88.9543 187.553C90.3971 177.946 87.8723 166.419 88.9543 156.428C89.315 156.428 89.6757 155.276 91.8398 157.965V158.35Z" fill="#71C3FB"/>
<path d="M65.1491 111.855C65.1491 115.698 58.2962 111.855 56.1321 114.545C54.6894 116.082 55.4107 127.61 55.4107 130.683C55.4107 137.216 56.1321 144.516 54.6894 151.049L53.968 112.24C57.9355 112.24 61.5423 112.24 65.5098 112.24L65.1491 111.855Z" fill="#BFBFFF"/>
<path d="M110.956 135.294C115.284 140.29 123.94 146.822 125.383 152.97C117.809 153.354 124.301 176.409 120.333 178.33C114.923 181.02 91.8395 172.182 95.4464 182.557C95.4464 182.557 92.9216 186.4 90.7575 185.247C91.1182 176.793 90.0361 166.419 91.4789 158.349C92.9216 149.512 103.742 141.058 110.595 135.679L110.956 135.294Z" fill="#3B56AE"/>
<path d="M152.434 116.851V143.748C144.138 143.748 136.203 143.748 128.268 144.516C127.547 144.516 127.186 146.822 126.826 147.206C126.104 147.206 117.448 135.679 115.645 134.526C116.727 131.452 130.072 116.466 131.154 116.082C132.236 116.082 150.27 116.466 152.073 116.851H152.434Z" fill="#2B47A8"/>
<path d="M125.744 153.354C128.268 163.729 125.383 177.178 126.465 187.937C125.022 188.321 125.022 187.168 125.022 187.168C123.219 179.867 122.858 183.71 122.497 183.71C117.448 183.71 99.4138 181.789 96.1677 182.941C92.5608 172.567 115.644 181.404 121.055 178.715C124.661 176.793 118.169 154.123 126.104 153.354H125.744Z" fill="#462A8F"/>
<path d="M161.451 151.433V154.891L127.908 154.123C127.908 153.354 126.465 152.586 127.547 151.433C138.728 151.433 150.27 151.433 161.451 151.433Z" fill="#466D91"/>
<path d="M125.022 186.784C119.251 186.016 96.8892 185.247 91.479 186.016V185.247C93.6431 186.4 95.8072 182.942 96.1679 182.557C99.414 181.405 117.448 183.326 122.498 183.326C122.498 183.326 123.219 179.099 125.022 186.784Z" fill="#181034"/>
<path d="M127.186 73.0462C130.432 82.2682 125.743 102.633 127.908 110.703C127.908 111.471 128.99 110.703 129.35 111.087C129.711 111.087 130.072 111.087 130.072 111.855C128.99 111.855 127.547 111.855 126.465 111.855C125.383 112.24 109.513 127.994 106.988 130.299C104.824 127.61 91.4788 114.929 90.7574 113.008C88.5933 105.323 92.9215 87.2634 90.036 78.4257L125.022 75.736L88.2326 76.8887C88.2326 76.8887 87.1506 74.5832 86.7899 74.199C86.7899 73.4305 86.7899 72.662 86.7899 71.5092C98.6924 71.5092 114.923 74.199 126.465 72.2777L127.186 73.0462Z" fill="#2C2A3D"/>
<path d="M96.5283 84.1895C96.5283 84.1895 96.8889 88.032 97.6103 88.4162C98.6923 89.1847 118.169 88.032 119.612 89.1847C120.694 89.9532 118.53 94.5642 121.415 94.18C121.415 97.6382 120.694 101.865 122.137 104.555C121.415 99.5595 122.858 94.5642 122.858 89.9532H125.743C125.743 89.9532 125.743 106.476 125.743 107.244C125.383 108.781 108.791 121.846 106.988 125.304L92.2001 109.166C96.8889 103.786 91.4787 89.9533 92.9214 84.1895C94.3642 81.4998 95.8069 83.8053 95.8069 83.8053L96.5283 84.1895Z" fill="#2B47A8"/>
<path d="M123.219 83.0367H121.776C113.481 83.0367 104.464 82.2682 96.5286 83.8052C96.5286 83.8052 95.0858 81.4997 93.6431 84.1894C91.8397 89.5689 97.2499 103.786 92.9218 109.166V78.8099H123.94C123.94 78.8099 123.58 81.4997 123.58 83.0367H123.219Z" fill="#9186F9"/>
<path d="M123.219 83.0367C123.219 85.3422 123.219 87.6477 123.219 89.9532C123.219 94.9485 121.776 99.5595 122.497 104.555C121.055 101.481 121.776 97.254 121.776 94.18C121.776 90.7217 119.973 86.8792 121.776 83.0367H123.219Z" fill="#3B56AE"/>
<path d="M121.776 83.0367C119.973 86.8792 121.776 90.3375 121.776 94.18C118.891 94.18 121.055 89.9532 119.973 89.1847C118.169 88.032 98.6927 89.1847 97.9713 88.4162C97.25 88.032 97.9713 85.3422 96.8893 84.1895C104.824 82.2682 113.841 83.421 122.137 83.421L121.776 83.0367Z" fill="#2B1F56"/>
<path d="M100.496 132.221C97.6106 133.758 89.6756 145.285 87.1508 145.669C81.0192 147.206 66.9527 141.443 60.0997 142.98C60.4604 134.142 60.0997 125.688 60.0997 116.851C66.2313 117.619 83.9047 114.929 87.1508 116.082C88.5936 116.082 102.299 128.762 100.496 132.221Z" fill="#2B47A8"/>
<path d="M59.7392 116.851C59.7392 125.688 60.0999 134.142 59.7392 142.98C59.7392 146.438 61.9033 151.433 55.7717 149.128L55.0503 130.299C55.0503 127.225 54.329 116.082 55.7717 114.161C55.411 116.082 58.6571 116.466 59.7392 116.851Z" fill="#5D74B7"/>
<path d="M261.219 82.6619C260.05 98.7098 272.517 111.701 286.152 111.701C300.566 111.701 313.421 97.5635 311.474 81.1335C309.915 83.044 300.955 92.2142 286.931 92.5963C272.517 92.9784 263.167 84.1902 261.219 82.6619Z" fill="#B0009D"/>
<path d="M249.922 50.9481C256.155 50.184 265.504 50.184 267.452 57.8258C272.517 75.02 261.219 84.9545 244.468 80.3693C233.949 77.3126 230.054 52.8586 249.532 50.9481H249.922Z" fill="#252034"/>
<path d="M266.673 61.6468C262.777 67.3782 263.946 59.3542 262.777 58.2079C261.609 57.0616 237.455 54.387 242.13 63.5572H239.014C239.014 63.5572 237.845 59.7363 239.793 57.0616C242.909 52.8586 263.167 52.4765 266.284 57.8258C267.063 59.3542 266.284 60.8826 267.063 62.0289L266.673 61.6468Z" fill="#96CDFF"/>
<path d="M266.673 66.2319C266.673 66.2319 267.452 66.9961 267.452 67.3782C263.946 70.817 242.52 68.9066 238.234 67.3782C237.455 67.3782 238.234 65.8498 238.234 65.4677L267.063 66.2319H266.673Z" fill="#2E2369"/>
<path d="M245.636 71.199L259.271 72.3453C256.155 73.1094 252.649 73.8736 249.142 73.4915C249.142 73.4915 244.078 72.7273 245.247 71.5811L245.636 71.199Z" fill="#2E2369"/>
<path d="M266.673 61.6467C266.673 61.6467 268.231 63.5572 267.842 65.8498C267.842 66.2319 266.673 65.8498 266.673 65.8498L237.845 65.0856C237.455 61.6467 239.014 62.793 239.014 62.4109H242.13C237.455 53.6228 261.609 56.2974 262.777 57.4437C263.946 58.59 262.777 66.614 266.673 60.8825V61.6467Z" fill="#53638E"/>
<path d="M245.636 58.2079C245.636 58.2079 264.725 57.0617 262.777 61.6468C262.388 62.7931 245.636 63.1751 245.247 62.7931C244.467 62.411 244.467 58.9721 246.026 58.2079H245.636Z" fill="#96CDFF"/>
<path d="M320.823 50.9482C336.796 49.8019 343.418 55.9154 339.133 72.7275C336.796 81.5157 323.55 82.2799 316.149 80.3694C308.747 78.4589 306.409 66.614 307.968 59.7363C309.526 52.8587 314.201 51.3303 320.434 50.9482H320.823Z" fill="#252034"/>
<path d="M337.964 60.1184C336.406 68.9065 335.237 58.2079 334.458 57.4437C332.51 55.9153 317.317 56.6795 314.2 58.2079L315.369 62.793C315.369 62.793 311.863 63.1751 310.305 62.0288C310.694 59.7363 310.305 55.5333 313.811 54.0049C316.148 53.2407 332.9 52.8586 334.848 54.0049C337.185 55.1512 337.185 57.8258 337.575 59.7363L337.964 60.1184Z" fill="#96CDFF"/>
<path d="M337.964 60.1183C339.523 65.0855 338.354 62.793 337.964 65.4676H309.526C309.526 61.6467 309.526 63.5572 310.305 62.0288C311.863 63.1751 313.811 62.793 315.369 62.793C317.707 62.793 332.9 63.1751 333.679 62.793C334.069 62.793 334.069 59.7362 333.679 59.3541C332.9 57.4437 316.538 58.972 313.811 58.2078C316.928 56.6795 332.121 56.2974 334.069 57.4437C334.848 58.2078 336.016 68.9065 337.575 60.1183H337.964Z" fill="#53638E"/>
<path d="M337.964 65.4676C337.964 65.4676 340.302 67.7602 337.185 68.9064C334.848 69.6706 310.305 68.9064 309.136 67.7601C308.747 66.6139 309.915 65.8497 309.915 65.4676H338.354H337.964Z" fill="#2E2369"/>
<path d="M316.928 71.1991C316.928 71.1991 330.952 70.817 332.51 72.3454C328.615 73.1096 323.161 73.8738 319.265 73.4917C318.096 73.4917 314.59 72.7275 316.538 71.5812L316.928 71.1991Z" fill="#363442"/>
<path d="M315.369 62.793L314.201 58.2079C316.928 58.59 333.289 57.0616 334.069 59.3542C334.069 59.7363 334.069 62.793 334.069 62.793C333.289 63.1751 318.096 62.793 315.759 62.793H315.369Z" fill="#96CDFF"/>
<path d="M284.354 109.599C284.354 109.599 297.21 108.452 304.222 98.9001C308.508 92.7866 309.287 85.1447 310.066 85.5268C310.455 85.5268 310.066 88.9657 310.066 91.6403C309.287 94.315 305.781 102.339 297.21 106.924C290.977 110.363 284.354 110.363 284.354 109.599Z" fill="#FC1DCF" fill-opacity="0.7"/>
<defs>
<linearGradient id="paint0_linear_106_35" x1="273.983" y1="37.6955" x2="295.142" y2="129.361" gradientUnits="userSpaceOnUse">
<stop stop-color="#68C2FF"/>
<stop offset="1" stop-color="#7291C6"/>
</linearGradient>
<linearGradient id="paint1_linear_106_35" x1="521.772" y1="219.83" x2="575.377" y2="274.854" gradientUnits="userSpaceOnUse">
<stop stop-color="#FF3DFF"/>
<stop offset="1" stop-color="#FF37FC"/>
</linearGradient>
<linearGradient id="paint2_linear_106_35" x1="461.177" y1="71.8935" x2="473.852" y2="197.392" gradientUnits="userSpaceOnUse">
<stop stop-color="#74C2FD"/>
<stop offset="1" stop-color="#6FA4E8"/>
</linearGradient>
<linearGradient id="paint3_linear_106_35" x1="89.6752" y1="99.5595" x2="139.014" y2="188.45" gradientUnits="userSpaceOnUse">
<stop stop-color="#4FEEFF"/>
<stop offset="1" stop-color="#2ED2EE"/>
</linearGradient>
</defs>
</svg>
